<?xml version="1.0" encoding="utf-8"?>
<!-- Generator: Adobe Illustrator 21.0.2, SVG Export Plug-In . SVG Version: 6.00 Build 0)  -->
<svg version="1.1" id="Layer_1" xmlns="http://www.w3.org/2000/svg" xmlns:xlink="http://www.w3.org/1999/xlink" x="0px" y="0px"
	 viewBox="0 0 264 256" style="enable-background:new 0 0 264 256;" xml:space="preserve">
<style type="text/css">
	.st0{fill:#F18401;}
	.st1{fill:#F28F18;}
	.st2{fill:#F49F38;}
	.st3{fill:#F6B05C;}
	.st4{fill:#F8C545;}
	.st5{fill:#E4E4E4;}
	.st6{fill:#DB494A;}
	.st7{fill:#DB4244;}
	.st8{fill:#E2E7F4;}
	.st9{fill:#F9C33A;}
	.st10{fill:#E4D6CF;}
	.st11{fill:#E5F5F5;}
</style>
<g>
	<path class="st0" d="M264,138c0,2,0,4,0,6c-2,1.6-1.5,3.9-1.9,5.9c-8.9,51-49.9,92.5-101.9,103.3c-4.2,0.9-8.8,0.7-12.7,2.8
		c-1.7,0-3.4,0-5.2,0c-1.5-1.4-3.3-0.8-5-0.9c-4.6,0-9.1,0-13.7-0.1c-1.4,0.2-2.9-0.6-4,0.9c-1.4,0-2.8,0-4.1,0
		c-1.6-2-4-1.5-6.1-1.8C54.7,245.3,11,202.7,1.8,149.4c-0.3-1.8,0.2-4-1.8-5.4c0-10.3,0-20.7,0-31c1.9-1.2,1.3-3.3,1.6-5
		C11.8,52,53.2,11.7,111,1.6c1.5-0.3,3.6,0.3,4.5-1.6c10.7,0,21.3,0,32,0c1.4,1.9,3.7,1.3,5.6,1.6c56.7,9.5,99.4,50.6,109.2,105.4
		c0.4,2-0.2,4.3,1.7,6c0,1,0,2,0,3c-1.5,1-0.8,2.5-0.9,3.9c0,4.4,0,8.8,0.1,13.3C263.1,134.8,262.5,136.6,264,138z M155.9,210.9
		c1.5,3.3,3.2,6.6,4.6,10c0.8,2,1.7,2.5,3.8,1.6c4-1.8,8.2-3.5,12.3-5c2.4-0.8,2.7-1.8,1.7-4c-1.5-3.3-3.4-6.5-4.1-10.2
		c3.1-0.6,5.7-2.4,8.1-4.2c27.6-19.9,40.7-46.3,37.4-79.6c-4.9-48.3-52.1-83.1-101.4-75C70.6,52.2,39,93.8,45.2,140.5
		C52,191.2,105.1,225,155.9,210.9z"/>
	<path class="st1" d="M263.1,133.1c0-4.4,0-8.8-0.1-13.3c0.3,0.1,0.6,0.1,0.9,0.1c0,4.3,0,8.7,0,13
		C263.7,133.1,263.4,133.1,263.1,133.1z"/>
	<path class="st1" d="M123.6,255.1c4.6,0,9.1,0,13.7,0.1c0,0.3-0.1,0.6-0.1,0.9c-4.5,0-8.9,0-13.4,0
		C123.7,255.7,123.7,255.4,123.6,255.1z"/>
	<path class="st2" d="M263.1,133.1c0.3,0,0.6-0.1,0.9-0.1c0,1.7,0,3.3,0,5C262.5,136.6,263.1,134.8,263.1,133.1z"/>
	<path class="st2" d="M137.2,256c0-0.3,0.1-0.6,0.1-0.9c1.7,0,3.6-0.6,5,0.9C140.6,256,138.9,256,137.2,256z"/>
	<path class="st3" d="M264,120c-0.3,0-0.6-0.1-0.9-0.1c0.2-1.3-0.6-2.9,0.9-3.9C264,117.3,264,118.7,264,120z"/>
	<path class="st3" d="M123.6,255.1c0.1,0.3,0.1,0.6,0.1,0.9c-1.4,0-2.8,0-4.1,0C120.7,254.5,122.2,255.2,123.6,255.1z"/>
	<path class="st4" d="M155.9,210.9C105.1,225,52,191.2,45.2,140.5C39,93.8,70.6,52.2,118.4,44.3c49.3-8.1,96.5,26.7,101.4,75
		c3.4,33.4-9.8,59.8-37.4,79.6c-2.5,1.8-5,3.6-8.1,4.2c-3-5.1-5.2-10.6-7.2-16.2c1.5-1.6,3.5-1.7,5.5-2.2c2.6-0.8,5.9,0.3,7.9-2.5
		c2.9-0.6,5.7-1.1,9.5-1.9c-8.1-7.3-15.4-13.9-22.7-20.5c-0.4-0.3-0.7-0.7-1.1-1c-0.1-0.3-0.1-0.6-0.2-0.8
		c12.8-14.9,15.7-31.4,6.8-48.8C164,92.1,148.9,84.1,129.1,85c-23,1-41.7,20.5-42,43.3c-0.3,22.1,17.8,41.9,39.8,43.7
		c0.7,0.1,1.3,0.2,2,0.3c0.1,10.6,0.2,21.1,0.3,31.7c0.6,1.6,1.2,0.6,1.8,0c0.8-0.6,1.6-1.3,2.3-1.9c3.9-2.9,7.9-5.7,11.8-8.7
		c2-1.6,3.1-1.4,4.1,1C151.3,199.8,153.6,205.3,155.9,210.9z"/>
	<path class="st5" d="M167.1,187c2,5.6,4.2,11,7.2,16.2c0.7,3.7,2.6,6.9,4.1,10.2c1,2.2,0.7,3.2-1.7,4c-4.2,1.5-8.3,3.2-12.3,5
		c-2.1,1-3,0.4-3.8-1.6c-1.4-3.4-3.1-6.7-4.6-10c-2.3-5.5-4.6-11-6.8-16.6c-1-2.4-2-2.6-4.1-1c-3.8,3-7.8,5.8-11.8,8.7
		c-2.7-1.1-2.2-3.5-2.2-5.6c0-8.2,0-16.3,0-24.5c0-3.8-0.1-7.6,0-11.4c0.3-11.2-0.8-22.4,0.7-33.6c11.4,10.4,22.8,20.7,34.2,31.1
		c0.1,0.3,0.2,0.6,0.2,0.8c-0.1,0.9,0.5,0.9,1.1,1c7.3,6.6,14.7,13.2,22.7,20.5c-3.8,0.7-6.6,1.3-9.5,1.9c-4,0.5-8,1.1-12,1.5
		C165.8,184.1,165.7,185.2,167.1,187z"/>
	<path class="st6" d="M165.9,158.1c-11.4-10.4-22.8-20.7-34.2-31.1c0,0-0.2-0.1-0.2-0.1c-0.5-0.5-1-1-1.5-1.5
		c-0.9-0.8-1,0.1-1.3,0.6c-2.5,1.4-1.8,3.7-1.8,5.8c0,13.4,0,26.8,0,40.2c-22-1.7-40.1-21.5-39.8-43.7c0.3-22.8,19.1-42.3,42-43.3
		c19.8-0.9,34.9,7.1,43.6,24.3C181.6,126.7,178.7,143.2,165.9,158.1z"/>
	<path class="st7" d="M126.8,172c0-13.4,0-26.8,0-40.2c0-2.1-0.7-4.4,1.8-5.8c0.2,1,0.3,2,0.5,3c0,14.3,0,28.7,0,43l-0.4,0.2
		C128.2,172.2,127.5,172.1,126.8,172z"/>
	<path class="st8" d="M131,172c0,8.2,0,16.3,0,24.5c0,2.1-0.5,4.5,2.2,5.6c-0.8,0.6-1.6,1.3-2.3,1.9c-0.6,0-1.2,0-1.8,0
		c-0.1-10.6-0.2-21.1-0.3-31.7c0,0,0.4-0.2,0.4-0.2C129.8,172,130.4,172,131,172z"/>
	<path class="st9" d="M167.1,187c-1.3-1.8-1.3-2.9,1.3-3.2c4-0.4,8-1,12-1.5c-2,2.8-5.3,1.7-7.9,2.5
		C170.6,185.3,168.5,185.4,167.1,187z"/>
	<path class="st8" d="M167.2,160c-0.6-0.1-1.2-0.2-1.1-1C166.5,159.3,166.9,159.6,167.2,160z"/>
	<path class="st10" d="M129.1,204c0.6,0,1.2,0,1.8,0C130.3,204.6,129.7,205.6,129.1,204z"/>
	<path class="st11" d="M131,172c-0.6,0-1.2,0-1.8,0.1c0-14.3,0-28.7,0-43c0.3-0.3,0.5-0.7,0.8-1c0.5-0.4,1-0.7,1.6-1.1
		c0,0,0.2,0.1,0.2,0.1c-1.5,11.2-0.4,22.4-0.7,33.6C130.9,164.4,131,168.2,131,172z"/>
	<path class="st10" d="M129.9,128c-0.3,0.3-0.5,0.7-0.8,1c-0.2-1-0.3-2-0.5-3c0.3-0.5,0.4-1.4,1.3-0.6
		C130,126.3,130,127.1,129.9,128z"/>
	<path class="st5" d="M129.9,128c0-0.9,0.1-1.7,0.1-2.6c0.5,0.5,1,1,1.5,1.5C131,127.3,130.5,127.6,129.9,128z"/>
</g>
</svg>
