<?xml version="1.0" encoding="utf-8"?>
<!-- Generator: Adobe Illustrator 21.0.2, SVG Export Plug-In . SVG Version: 6.00 Build 0)  -->
<svg version="1.1" id="Layer_1" xmlns="http://www.w3.org/2000/svg" xmlns:xlink="http://www.w3.org/1999/xlink" x="0px" y="0px"
	 viewBox="0 0 74 74" style="enable-background:new 0 0 74 74;" xml:space="preserve">
<style type="text/css">
	.st0{fill:#E74849;}
	.st1{fill:#f5f5f5;}
	.st2{fill:#ECCA2B;}
	.st3{fill:#010100;}
</style>
<g>
	<path class="st0" d="M33,0.3c2.8,0,5.6,0,8.4,0c1,0.2,2.1,0.2,3.1,0.3c5.9,0.6,11,3.2,15.7,6.8c6.8,5.1,11.2,11.8,13.5,19.9
		c0.7,2.4,0.6,4.9,0.8,7.3c0.2,3.4,0.1,6.7-0.3,10.1c-0.4,4-2,7.6-4,11.1c-5.1,9-12.8,15-22.8,17.8c-4.4,1.2-9,0.9-13.5,0.8
		c-3.4-0.1-6.7-0.5-9.9-1.8c-4.2-1.7-8.1-3.9-11.5-7c-5.4-4.7-9-10.4-11.2-17.2c-0.7-2-0.6-4.2-0.9-6.3c0-0.3,0.1-0.6-0.1-0.8
		c0-2.8,0-5.6,0-8.4c0.5-2.6,0.4-5.3,1.4-7.9c1.8-4.8,4.3-9.2,7.8-13C14.2,6.8,20,3.2,26.7,1.1C28.8,0.5,30.9,0.7,33,0.3z"/>
	<path class="st1" d="M0.3,41.3c0.6,1.1,0.5,2.4,0.8,3.6c3.8,17.8,19.5,29.9,38,29.3c17.3-0.6,32.3-14.1,34.8-31.6
		c3-20.3-11.1-39-31.6-42.1c-0.3-0.1-0.8,0.1-1-0.3c10.7,0,21.5,0,32.2,0c0.9,0,1,0.2,1,1c0,24.1,0,48.2,0,72.3c0,0.9-0.2,1-1,1
		c-24.1,0-48.2,0-72.3,0c-0.9,0-1-0.2-1-1C0.3,62.8,0.3,52.1,0.3,41.3z"/>
	<path class="st1" d="M33,0.3c-0.5,0.5-1.1,0.4-1.7,0.5C15.5,3.5,3.5,15.5,0.8,31.2c-0.1,0.6,0,1.3-0.5,1.7c0-10.6,0-21.1,0-31.7
		c0-0.9,0.2-1,1-1C11.9,0.3,22.4,0.3,33,0.3z"/>
	<path class="st2" d="M37.4,55c-8.2,0-16.4,0-24.6,0c-0.9,0-1.8,0.2-2.3-0.8c-0.5-0.9,0-1.7,0.5-2.4c8.1-13,16.1-26,24.2-39
		c0.2-0.3,0.4-0.7,0.6-1c1-1.4,2.2-1.4,3.1,0c1.9,3,3.8,6.1,5.7,9.2c6.4,10.3,12.7,20.5,19.1,30.8c0.3,0.5,0.7,1,0.7,1.7
		c-0.1,1.4-1.1,1.5-2.2,1.5C54,55,45.7,55,37.4,55z"/>
	<path d="M34.9,29c0-0.8,0-1.6,0-2.5C35,25,36,24.1,37.4,24c1.4-0.1,2.1,0.6,2.4,2.2c0.4,2,0,3.9-0.2,5.9c-0.2,2.1-0.3,4.2-0.6,6.3
		c-0.1,0.6-0.2,1.1-0.4,1.7c-0.2,0.6-0.7,1-1.4,1c-0.7,0-1.1-0.4-1.4-1.1c-0.5-1.4-0.4-2.9-0.5-4.3C35.2,33.5,35.1,31.2,34.9,29
		C34.9,29,34.9,29,34.9,29z"/>
	<path class="st3" d="M39.9,46.4c0,1.4-1,2.4-2.4,2.5c-1.5,0-2.5-0.9-2.6-2.3c0-1.5,1-2.6,2.5-2.6C38.7,44,39.8,45.1,39.9,46.4z"/>
</g>
</svg>
