<?xml version="1.0" encoding="utf-8"?>
<!-- Generator: Adobe Illustrator 21.0.2, SVG Export Plug-In . SVG Version: 6.00 Build 0)  -->
<svg version="1.1" id="Layer_1" xmlns="http://www.w3.org/2000/svg" xmlns:xlink="http://www.w3.org/1999/xlink" x="0px" y="0px"
	 viewBox="0 0 74 74" style="enable-background:new 0 0 74 74;" xml:space="preserve">
<style type="text/css">
	.st0{fill:#4ABB95;}
	.st1{fill:#f5f5f5;}
	.st2{fill:#7FCFB4;}
	.st3{fill:#7ECFB4;}
	.st4{fill:#E8494A;}
	.st5{fill:#E83D3F;}
	.st6{fill:#F6D88A;}
	.st7{fill:#909293;}
	.st8{fill:#E8BC3F;}
	.st9{fill:#606463;}
	.st10{fill:#336F7E;}
	.st11{fill:#33707F;}
	.st12{fill:#336F7F;}
	.st13{fill:#34707F;}
	.st14{fill:#EF6769;}
</style>
<g>
	<path class="st0" d="M36.4,0.3c1.5,0,3.1,0,4.6,0c1.1,0.2,2.3,0.2,3.4,0.3c5.4,0.4,10,2.7,14.3,5.7c6.7,4.6,11.3,10.9,14.2,18.5
		c1.2,3.1,1.3,6.4,1.5,9.6c0.2,3.5,0.1,7.1-0.3,10.6c-0.7,5.5-3.2,10.3-6.4,14.7c-5.1,7-11.9,11.7-20.3,14c-4.4,1.2-9,0.9-13.6,0.8
		c-3.5-0.1-6.9-0.5-10.2-1.9c-11.4-4.8-19-13-22.5-24.9c-0.6-2-0.4-4.2-0.7-6.2c0-1.6,0-3.3,0-4.9c0.3-0.9,0.1-1.8,0.1-2.8
		C0.3,25.4,3.7,18.5,9,12.5c4.6-5.3,10.2-9,16.9-11.1c2.5-0.8,5.2-0.8,7.8-0.9C34.6,0.4,35.5,0.6,36.4,0.3z"/>
	<path class="st1" d="M0.3,41.3c0.6,1.1,0.5,2.4,0.8,3.6c3.8,17.8,19.4,29.9,37.9,29.3c17.4-0.5,32.4-14,35-31.6
		C77,22.3,62.4,3.1,42,0.6c-0.3,0-0.7,0.1-0.9-0.3c10.8,0,21.7,0,32.5,0c0.9,0,1,0.2,1,1c0,24.1,0,48.2,0,72.3c0,0.9-0.2,1-1,1
		c-24.1,0-48.2,0-72.3,0c-0.9,0-1-0.2-1-1C0.3,62.8,0.3,52.1,0.3,41.3z"/>
	<path class="st1" d="M33.5,0.5C20.3,2.1,10.7,8.8,4.4,20.4c-2.2,4.1-3.5,8.4-3.8,13c0,0.1,0,0.2-0.1,0.3c-0.1-0.1-0.1-0.1-0.2-0.2
		c0-10.7,0-21.5,0-32.2c0-0.9,0.2-1,1-1c10.7,0,21.5,0,32.2,0c0.1,0.1,0.1,0.1,0.2,0.2C33.6,0.5,33.6,0.5,33.5,0.5z"/>
	<path class="st2" d="M33.5,0.5c0-0.1,0-0.2,0.1-0.2c1,0,1.9,0,2.9,0C35.5,0.7,34.5,0.6,33.5,0.5z"/>
	<path class="st3" d="M0.3,33.5c0.1-0.1,0.2-0.1,0.2-0.1c0.1,1,0.2,2-0.2,2.9C0.3,35.5,0.3,34.5,0.3,33.5z"/>
	<path class="st1" d="M44.6,60.2c-6.4,1-12.8,2-19.2,3.1c-1.1,0.2-1.5-0.1-1.7-1.3C21.3,47.5,19,33,16.7,18.4
		c-0.1-0.9-0.1-1.2,0.9-1.4c10.4-1.6,20.8-3.3,31.2-5c1-0.2,1.2,0.2,1.4,1c0.5,3.3,1,6.7,1.6,10c0.1,0.5,0.2,0.9,0.3,1.4
		c0.8,0.5,0.5,1.1,0.4,1.8c-1.9,9.2-3.8,18.4-5.8,27.6c-0.4,2-0.5,4.1-1.5,6C45,60.1,44.8,60.2,44.6,60.2z"/>
	<path class="st1" d="M53.4,33.7c1.3,7.8,2.5,15.5,3.8,23.3c0.1,0.9-0.1,1.2-1,1.3c-2.8,0.4-5.5,0.8-8.2,1.3c-0.6-0.4-0.3-1-0.2-1.6
		c1.2-5.8,2.4-11.7,3.6-17.5c0.4-1.9,0.7-3.9,1.3-5.8C52.8,34.4,52.8,33.8,53.4,33.7z"/>
	<path class="st4" d="M44.9,59.8c1.2-5.8,2.4-11.7,3.6-17.5c1.2-5.9,2.4-11.9,3.6-17.8c0.1-0.4,0.3-0.9,0.4-1.3
		c0.8-0.4,1.4-0.2,1.6,0.8c-0.7,4.1-1.7,8.2-2.5,12.3C50.2,43.6,48.6,51,47,58.4c-0.2,0.8-0.1,1.7-1.3,1.8
		C45.4,60.3,45.1,60.1,44.9,59.8z"/>
	<path class="st5" d="M53.4,33.7C52,40.5,50.5,47.2,49.1,54c-0.4,1.9-0.8,3.8-1.1,5.6c-0.1,0.2-0.2,0.5-0.3,0.7
		c-0.4,0.2-0.6,0-0.8-0.3c-0.1-1.9,0.5-3.7,0.9-5.5c1.6-7.7,3.2-15.4,4.8-23.2c0.5-2.5,0.9-5.1,1.7-7.5c0.3-0.2,0.6-0.3,0.9-0.2
		c-0.3,2.9-1.1,5.7-1.7,8.6C53.6,32.8,53.5,33.3,53.4,33.7z"/>
	<path class="st6" d="M55.3,23.7c-0.2,0.1-0.4,0.2-0.7,0.2C54.3,24,54,24,53.8,23.7c-0.2-0.6-0.9-0.2-1.2-0.6
		c0.4-0.8,0.9-1.6,1.3-2.4c0.4-0.3,0.8-0.3,1.2,0.2C55.3,21.8,55.2,22.8,55.3,23.7z"/>
	<path class="st7" d="M47.2,60.1c0.2,0.1,0.4,0.2,0.5,0.2c-0.1,0.7-0.2,1.3-0.3,2c-1.1,0.4-2.1,0.4-2.9-0.8c0-0.5,0-0.9,0.1-1.4
		c0.1-0.1,0.2-0.3,0.3-0.4c0.3,0,0.5,0.1,0.8,0.1C46.1,60.2,46.7,59.5,47.2,60.1z"/>
	<path class="st8" d="M44.5,61.6c1,0.3,1.9,0.5,2.9,0.8c-0.4,1.6-1.5,0.7-2.3,0.6C44.3,62.9,44,62.4,44.5,61.6z"/>
	<path class="st9" d="M55,20.9c-0.4-0.1-0.8-0.1-1.2-0.2c0.2-0.6,0.4-1.2,1-1.7C55,19.7,55,20.3,55,20.9z"/>
	<path class="st10" d="M21.8,27.3c-0.7,0.3-0.7-0.3-0.9-0.8c-0.3-0.9,0.3-0.9,0.9-1c5.5-0.9,11-1.7,16.5-2.6
		c2.9-0.5,5.9-0.9,8.8-1.4c0.7-0.1,1,0,1.1,0.8c0.1,0.7-0.1,0.9-0.8,1C39,24.5,30.5,25.9,21.8,27.3z"/>
	<path class="st11" d="M46.7,17.1c0.9-0.2,0.7,0.5,0.8,1c0.3,0.7-0.3,0.8-0.8,0.8c-5.2,0.8-10.4,1.7-15.5,2.5c-3.3,0.5-6.7,1-10,1.6
		c-0.6,0.1-1,0.2-1.1-0.6c-0.1-0.6-0.1-1.1,0.7-1.2c8.6-1.3,17.1-2.7,25.7-4.1C46.6,17.1,46.7,17.1,46.7,17.1z"/>
	<path class="st12" d="M22.8,31.9c-1.1,0.2-1-0.4-1.1-0.8c-0.2-0.7,0.2-0.9,0.8-1c4.1-0.6,8.2-1.3,12.2-1.9c4.3-0.7,8.6-1.4,13-2.1
		c0.6-0.1,1.2-0.3,1.4,0.7c0.1,0.8-0.1,1-0.9,1.1c-4.7,0.7-9.4,1.5-14.1,2.2c-3.7,0.6-7.4,1.2-11.1,1.8
		C22.8,31.8,22.7,31.9,22.8,31.9z"/>
	<path class="st13" d="M37.6,33.4c0.2,0.6-0.2,0.7-0.7,0.8c-4.5,0.7-9,1.4-13.5,2.2c-0.8,0.1-0.8-0.3-0.9-0.9
		c-0.2-0.6,0-0.8,0.6-0.9c4.5-0.7,9-1.4,13.5-2.2C37.5,32.2,37.5,32.8,37.6,33.4z"/>
	<path class="st14" d="M47.2,60.1c-0.5,0-1.1,0-1.5-0.3c0.8-0.3,0.7-1.1,0.9-1.7c2.4-11.3,4.7-22.5,7-33.8c0-0.2,0.1-0.5,0.2-0.7
		c0.4-0.2,0.7-0.3,0.9,0.2c-0.4,3.5-1.3,6.9-2,10.3C50.8,42.9,49,51.5,47.2,60.1z"/>
</g>
</svg>
