<?xml version="1.0" encoding="utf-8"?>
<!-- Generator: Adobe Illustrator 21.0.2, SVG Export Plug-In . SVG Version: 6.00 Build 0)  -->
<svg version="1.1" id="Layer_1" xmlns="http://www.w3.org/2000/svg" xmlns:xlink="http://www.w3.org/1999/xlink" x="0px" y="0px"
	 viewBox="0 0 74 74" style="enable-background:new 0 0 74 74;" xml:space="preserve">
<style type="text/css">
	.st0{fill:#6EC1CA;}
	.st1{display:none;fill:#FDFEFE;}
	.st2{fill:#CD2F2E;}
	.st3{fill:#AC2829;}
	.st4{fill:#EAE6C0;}
	.st5{fill:#E8E3B0;}
	.st6{fill:#5CBCCC;}
	.st7{fill:#FDECBE;}
	.st8{fill:#5A4E3E;}
	.st9{fill:#786F65;}
	.st10{fill:#8FB8BF;}
	.st11{fill:#FDFEFE;}
	.st12{fill:#7F766A;}
	.st13{fill:#FAF6C9;}
	.st14{fill:#A3D1C5;}
</style>
<g>
	<path class="st0" d="M74,33c0,2.9,0,5.8,0,8.7c-0.5,0.5-0.4,1.1-0.5,1.7c-2.6,15.1-14.4,27.1-29.4,30c-1,0.2-2.1,0.1-3.1,0.6
		c-2.8,0-5.6,0-8.4,0c-0.5-0.5-1.2-0.4-1.8-0.5C15.2,70.8,3.2,58.8,0.5,43c-0.1-0.5,0-1.2-0.5-1.6c0-2.9,0-5.8,0-8.7
		c0.5-0.4,0.4-1.1,0.5-1.6c1.6-9.5,6.2-17.3,13.8-23.2C19.2,4,24.8,1.4,31.1,0.6c-0.4,6.5,0.6,12.7,2.6,18.9
		c0.4,1.2,0.7,2.4-0.1,3.5c-0.9,0.5-1,1.3-0.6,2.2c-5.1,0-10.1,0-15.2,0c-0.7,0-1.3-0.1-1.9,0.3c-1.8,0.8-3.6,1.5-3.9,3.8l-0.1,0
		c-0.4,0.2-0.5,0.5-0.1,0.9c0,7.5,0,15,0,22.5c-0.4,0.4-0.4,0.8,0.2,1.2c0-0.1,0.1-0.1,0.2-0.1c0.3,1.9,1.7,2.8,3.4,3.4
		c0.3,0.6,0.9,0.5,1.4,0.5c13.4,0,26.8,0,40.2,0c0.5,0,1.1,0.1,1.4-0.5c1.9-0.5,3.1-1.7,3.6-3.6c0.4-0.2,0.4-0.5,0.1-0.9
		c0-7.5,0-15,0-22.5c0.4-0.5,0.4-0.9-0.2-1.2c-0.9-2.3-2.7-3.2-5.1-3.2c-5.2,0-10.4,0-15.5,0c0.1-0.9,0.8-2-0.4-2.7
		c-0.1-0.5-0.4-0.8-0.9-0.8c1.6-3.2,2.4-6.7,3-10.2c0.6-3.8,1.1-7.6,0.8-11.4c0.1,0,0.3,0,0.4,0c14.6,2.7,26.6,14.8,29.3,29.4
		C73.5,31,73.5,32.1,74,33z"/>
	<path class="st1" d="M31.1,0.6C24.8,1.4,19.2,4,14.3,7.9c-7.6,6-12.2,13.8-13.8,23.4c-0.1,0.5,0,1.2-0.5,1.6C0,22.3,0,11.7,0,1
		c0-0.9,0.2-1,1-1c10.7,0,21.5,0,32.2,0C32.6,0.6,31.7,0.2,31.1,0.6z"/>
	<path class="st1" d="M74,33.2c-0.5-0.9-0.4-2-0.6-2.9C70.7,15.6,58.7,3.4,44.1,0.7c-0.1,0-0.3,0-0.4,0c-0.9-0.4-2-0.1-2.9-0.7
		C51.5,0,62.2,0,73,0c0.9,0,1,0.2,1,1C74,11.8,74,22.5,74,33.2z"/>
	<path class="st1" d="M0,41.7c0.5,0.4,0.4,1.1,0.5,1.6c2.7,16,14.6,28.1,30.4,30.8c0.6,0.1,1.3,0,1.8,0.5c-10.5,0-21,0-31.6,0
		c-0.9,0-1.1-0.2-1.1-1.1C0,62.9,0,52.3,0,41.7z"/>
	<path class="st1" d="M41,74.6c1-0.5,2-0.5,3.1-0.7c15-2.9,26.7-15,29.4-30.2c0.1-0.6,0-1.3,0.5-1.8c0,10.5,0,21.1,0,31.6
		c0,0.9-0.2,1-1,1C62.3,74.6,51.7,74.6,41,74.6z"/>
	<path class="st2" d="M31.1,0.6c0.7-0.4,1.6,0,2.2-0.6c1.2,0,2.3,0,3.5,0c-0.1,2-0.3,3.9-0.3,5.9c0,3.1,0,6.2,0.8,9.2
		c0.2,2.5,1,4.7,1.9,7c0.1,0.3,0.1,0.7,0.6,0.6c0.1,0,0.1-0.3,0.2-0.5c0.5,0,0.8,0.3,0.9,0.8c-0.2,0.2-0.5,0.4-0.7,0.5
		c-1.9,0.2-3.7,0.2-5.6,0c-0.3-0.2-0.7-0.4-1-0.6c0.8-1.2,0.5-2.3,0.1-3.5C31.6,13.3,30.7,7.1,31.1,0.6z"/>
	<path class="st3" d="M39.9,22.3c-0.1,0.2-0.1,0.5-0.2,0.5c-0.5,0.1-0.5-0.4-0.6-0.6c-0.8-2.3-1.6-4.6-1.9-7
		c0.1-0.1,0.2-0.1,0.2-0.2c0.8-4,1-8,0.6-12c-0.1-1-0.3-1.9,0-2.9c0.9,0,1.7,0,2.6,0c0.9,0.5,2,0.3,2.9,0.7
		c0.3,3.8-0.2,7.6-0.8,11.4C42.4,15.6,41.5,19,39.9,22.3z"/>
	<path class="st0" d="M38.2,0c-0.3,1-0.1,1.9,0,2.9c0.4,4,0.2,8-0.6,12c0,0.1-0.1,0.1-0.2,0.2c-0.9-3-0.8-6.1-0.8-9.2
		c0-2,0.2-3.9,0.3-5.9C37.2,0,37.7,0,38.2,0z"/>
	<path class="st4" d="M15.4,57c-1.7-0.6-3.1-1.4-3.4-3.4c0.3-0.5,0.2-1.1,0.2-1.7c0-7,0-13.9,0-20.9c0-0.6,0-1.3-0.3-1.8
		c0.3-2.3,2.1-3,3.9-3.7c1.1,0.3,2.2,0.1,3.3,0.2c2.8,2.9,5.6,5.7,8.5,8.6c0.4,0.4,1,0.8,1.1,1.5c-3.7,0-7.4,0-11.1,0
		c-0.6,0-1.3-0.2-1.6,0.6c0,0.6,0.1,1.1,0.1,1.7c0,0.5,0.2,0.8,0.8,0.8c4.9-0.1,9.9,0.2,14.8-0.1c0.3,0.1,0.5,0.1,0.8,0.2
		c0.1,0.1,0.2,0.2,0.3,0.3c0,0.1,0,0.2,0,0.3c-5,0-10,0-15,0c-0.6,0-1.4-0.3-1.7,0.6c0,0.7,0.2,1.1,1,1c0.4,0,0.8,0,1.1,0
		c5.4,0,10.7-0.1,16.1-0.1c0.3,0.1,0.5,0.1,0.8,0.2c0.3,0.6,0.6,1.2,0.9,1.7c-1.5,0-3,0-4.5,0c-0.8,0-1.7-0.3-2.5,0.4
		c0.1,0.6-0.6,1.8,0.6,1.8c2.8,0.1,5.6,0.2,8.4-0.1c0.4,0.1,0.7,0.1,1.1,0.2c1.1,2,3,3.3,4.6,5c0,0.2,0.1,0.4,0.1,0.6
		c0,1.1-0.4,2.3,0.8,3c1,0.4,2.1,0.1,3.2,0.2c0.2,1.1,1.5,1.4,1.7,2.5c-10.6,0-21.2,0-31.9,0c-0.7,0-1.4-0.2-2,0.3
		C15.5,57,15.4,57,15.4,57z M16.2,43.4c-0.5,1.8-0.4,1.9,1.3,1.9c2,0,3.9-0.1,5.9,0c1.4,0.1,2.7,0.2,2.5-1.8c-0.4-0.5-1-0.4-1.6-0.4
		c-2.2,0-4.5,0-6.7,0C17.2,43.1,16.6,43,16.2,43.4z"/>
	<path class="st5" d="M43.6,50.3c-1.5-1.6-3.5-2.9-4.6-5c-0.1-0.7,0.4-1.5-0.6-2c-0.8-0.6-1.7-0.2-2.6-0.3c-0.3-0.6-0.6-1.2-0.9-1.7
		c0.9,0,1.9-0.1,2.8-0.1c0.9,0,1.2-0.3,0.9-1.2c-0.3-0.6-0.9-0.5-1.4-0.5c-1.6,0-3.1,0-4.7,0c0-0.1,0-0.2,0-0.3c0-0.1,0-0.2,0-0.3
		c1.3,0,2.6-0.1,3.8-0.1c2.5,0,2.5,0,2.3-2.7c-0.4-0.6-1-0.5-1.5-0.5c-2.9,0-5.7,0-8.6,0c-0.1-0.7-0.7-1-1.1-1.5
		c-2.8-2.9-5.6-5.7-8.5-8.6c4.5,0,9.1-0.1,13.6-0.1c0.1,0,0.3,0,0.4,0.1c0.5,1,1.3,1.8,2.3,2.4c-0.5,1-0.3,1.8,0.6,2.4
		c0.6,0.4,1.2,0.8,1.9,0.2c0.8-0.7,1-1.5,0.5-2.4c-0.3-0.6-0.8-0.7-1.4-0.7c-1.2-0.1-2.2-0.5-2.7-1.7c2,0,3.9,0,5.9-0.1
		c0.4,0,0.7,0,1.1,0c5.2,0,10.4,0,15.5,0c2.4,0,4.2,0.9,5.1,3.2c0.1,0.4,0.2,0.8,0.2,1.2c0,7.5,0,15,0,22.5c0,0.3-0.1,0.6-0.1,0.9
		c-0.5,1.9-1.7,3.1-3.6,3.6c-0.1,0-0.2-0.1-0.3-0.1c-0.5-0.4-1.1-0.3-1.7-0.3c-2.3,0-4.7,0-7,0c-0.2-1.1-1.5-1.4-1.7-2.5
		c1.8,0,3.5,0,5.3,0c1.6-0.1,3.2,0.3,4.8-0.2c1-0.2,1.1-1,1.1-1.9c0-4.6,0-9.1,0-13.7c0-1.7-0.6-2.3-2.4-2.3c-3.5,0-7,0-10.5,0
		c-1.9,0-2.4,0.5-2.4,2.4C43.6,42.3,43.6,46.3,43.6,50.3z"/>
	<path class="st6" d="M58.1,57c0.1,0,0.2,0.1,0.3,0.1c-0.3,0.6-0.9,0.5-1.4,0.5c-13.4,0-26.8,0-40.2,0c-0.5,0-1.1,0.1-1.4-0.5
		c0.1,0,0.2,0,0.3-0.1c0.4,0,0.9,0.1,1.3,0.1c13.3,0,26.6,0,39.9,0C57.2,57,57.7,57,58.1,57z"/>
	<path class="st7" d="M11.9,29.3c0.3,0.6,0.3,1.2,0.3,1.8c0,7,0,13.9,0,20.9c0,0.6,0,1.2-0.2,1.7c-0.1,0-0.1,0-0.2,0.1
		c-0.1-0.4-0.1-0.8-0.2-1.2c0-7.5,0-15,0-22.5c0-0.3,0.1-0.6,0.1-0.9L11.9,29.3z"/>
	<path class="st6" d="M32.7,25.6c-4.5,0-9.1,0.1-13.6,0.1c-1.1-0.2-2.2,0.1-3.3-0.2c0.6-0.4,1.3-0.3,1.9-0.3c5.1,0,10.1,0,15.2,0
		c0,0.1,0,0.2,0.1,0.3C32.9,25.5,32.8,25.6,32.7,25.6z"/>
	<path class="st8" d="M33,25.4c0-0.1,0-0.2-0.1-0.3c-0.3-0.9-0.3-1.6,0.6-2.2c0.3,0.2,0.7,0.4,1,0.6c-1.4,0.6-0.6,1.4-0.3,2.2
		c0.5,1.2,1.6,1.6,2.7,1.7c0.6,0.1,1.1,0.1,1.4,0.7c-1,0.3-2,0.1-3-0.2c-1-0.5-1.8-1.3-2.3-2.4C33.1,25.6,33.1,25.5,33,25.4z"/>
	<path class="st9" d="M41.2,25.7c-0.4,0-0.7,0-1.1,0c0.2-0.7,0.6-1.4-0.1-2.1c0.2-0.2,0.5-0.4,0.7-0.5C42,23.7,41.4,24.8,41.2,25.7z
		"/>
	<path class="st6" d="M62.1,30.1c-0.1-0.4-0.2-0.8-0.2-1.2C62.5,29.2,62.5,29.6,62.1,30.1z"/>
	<path class="st6" d="M11.6,52.6c0.1,0.4,0.1,0.8,0.2,1.2C11.2,53.4,11.2,53,11.6,52.6z"/>
	<path class="st6" d="M11.8,29.2c0,0.3-0.1,0.6-0.1,0.9C11.3,29.7,11.3,29.5,11.8,29.2z"/>
	<path class="st6" d="M62,53.5c0-0.3,0.1-0.6,0.1-0.9C62.4,53,62.4,53.2,62,53.5z"/>
	<path class="st0" d="M40.1,23.6c0.6,0.7,0.2,1.4,0.1,2.1c-2,0-3.9,0-5.9,0.1c-0.4-0.8-1.1-1.6,0.3-2.2
		C36.4,23.8,38.3,23.8,40.1,23.6z"/>
	<path class="st10" d="M43.6,50.3c0-4,0-8,0.1-12c0-1.9,0.5-2.4,2.4-2.4c3.5,0,7,0,10.5,0c1.8,0,2.4,0.6,2.4,2.3c0,4.6,0,9.1,0,13.7
		c0,0.9-0.1,1.7-1.1,1.9c0-4.4-0.1-4.5-4.3-5c-0.3,0-0.7,0-0.8-0.4c-0.2-0.5,0.3-0.7,0.6-1c2-1.8,2.6-4.7,1.4-6.9
		c-1.6-2.8-4.9-2.3-6.3-0.6c-0.7,0.8-1.6,1.8-1.3,2.9c0.4,1.6,0.7,3.4,2.2,4.6c0.3,0.3,0.7,0.7,0.5,1.1c-0.2,0.6-0.7,0.3-1.1,0.4
		c-2.8,0.2-3.3,0.5-4,2.7c-0.3-0.2-0.6-0.4-0.9-0.6C43.7,50.7,43.6,50.5,43.6,50.3z"/>
	<path class="st11" d="M44.6,51.5c0.7-2.2,1.2-2.5,4-2.7c0.4,0,1,0.2,1.1-0.4c0.1-0.4-0.2-0.8-0.5-1.1c-1.5-1.2-1.8-3-2.2-4.6
		c-0.3-1.1,0.7-2.1,1.3-2.9c1.4-1.7,4.7-2.2,6.3,0.6c1.2,2.2,0.7,5.1-1.4,6.9c-0.3,0.3-0.7,0.5-0.6,1c0.1,0.4,0.5,0.4,0.8,0.4
		c4.2,0.5,4.3,0.6,4.3,5c-1.6,0.5-3.2,0.2-4.8,0.2c-1.8,0.1-3.5,0-5.3,0c-1-0.1-2.1,0.2-3.2-0.2C44.5,53.1,44.5,52.3,44.6,51.5z"/>
	<path class="st12" d="M34.2,41.2c-5.4,0-10.7,0.1-16.1,0.1c-0.4,0-0.8,0-1.1,0c-0.8,0.1-1-0.4-1-1c5.9-0.3,11.7-0.1,17.6-0.1
		C33.7,40.5,33.9,40.8,34.2,41.2z"/>
	<path class="st8" d="M38.7,36.3C39,39,39,39,36.5,39c-1.3,0-2.6,0-3.8,0.1c-0.1,0-0.2,0-0.3,0c-0.3-0.1-0.5-0.1-0.8-0.2
		c0-0.1-0.1-0.3-0.1-0.4c-0.6-0.7-1.2-1.4-1.7-2.1C32.7,36.4,35.7,36.3,38.7,36.3z"/>
	<path class="st9" d="M26,43.5c0.1,2-1.2,1.9-2.5,1.8c-2-0.1-3.9,0-5.9,0c-1.8,0-1.9-0.1-1.3-1.9C19.5,43.4,22.7,43.5,26,43.5z"/>
	<path class="st9" d="M37.9,45.2c-2.8,0.3-5.6,0.2-8.4,0.1c-1.2,0-0.5-1.2-0.6-1.8c2.7,0,5.4,0,8.1,0C37.1,44.2,37.9,44.4,37.9,45.2
		z"/>
	<path class="st13" d="M38.7,36.6c-3,0-6,0-9,0.1c-4.4,0-8.8,0-13.2,0c-0.2,0-0.4,0-0.6,0.1c0.3-0.8,1-0.6,1.6-0.6
		c3.7,0,7.4,0,11.1,0c2.9,0,5.7,0,8.6,0C37.8,36.2,38.4,36,38.7,36.6z"/>
	<path class="st13" d="M33.5,40.5c-5.9,0-11.7-0.2-17.6,0.1c0.3-0.9,1.1-0.6,1.7-0.6c5,0,10,0,15,0c1.6,0,3.1,0,4.7,0
		c0.5,0,1.1-0.1,1.4,0.5C37,40.5,35.3,40.5,33.5,40.5z"/>
	<path class="st7" d="M58.1,57.4c-0.4,0-0.9,0.1-1.3,0.1c-13.3,0-26.6,0-39.9,0c-0.4,0-0.9-0.1-1.3-0.1c0.6-0.4,1.3-0.3,2-0.3
		c10.6,0,21.2,0,31.9,0c2.3,0,4.7,0,7,0C57,57.1,57.6,57,58.1,57.4z"/>
	<path class="st9" d="M15.9,36.5c0.2,0,0.4,0,0.6-0.1c0,2.1,0,2.1,2.1,2.1c4.3,0,8.6,0,12.9,0c0,0.1,0.1,0.3,0.1,0.4
		c-4.9,0.3-9.9,0.1-14.8,0.1c-0.5,0-0.8-0.2-0.8-0.8C16,37.6,15.9,37,15.9,36.5z"/>
	<path class="st8" d="M33.5,40.2c1.7,0,3.5,0,5.2-0.1c0.3,0.9,0,1.2-0.9,1.2c-0.9,0-1.9,0-2.8,0.1c-0.3-0.1-0.5-0.1-0.8-0.2
		C33.9,40.8,33.7,40.5,33.5,40.2z"/>
	<path class="st8" d="M37.9,45.2c0-0.7-0.8-1-0.9-1.7c0.5,0,1-0.1,1.4-0.1c1,0.4,0.5,1.3,0.6,2C38.6,45.3,38.3,45.2,37.9,45.2z"/>
	<path class="st13" d="M26,43.5c-3.3,0-6.5-0.1-9.8-0.1c0.4-0.4,1-0.3,1.5-0.3c2.2,0,4.5,0,6.7,0C25,43.1,25.6,43,26,43.5z"/>
	<path class="st13" d="M38.4,43.4c-0.5,0-1,0.1-1.4,0.1c-2.7,0-5.4,0-8.1,0c0.7-0.6,1.7-0.3,2.5-0.4c1.5-0.1,3,0,4.5,0
		C36.7,43.2,37.6,42.8,38.4,43.4z"/>
	<path class="st14" d="M44.6,51.5c0,0.8,0,1.6,0,2.4c-1.2-0.7-0.9-1.9-0.8-3C44,51.1,44.3,51.3,44.6,51.5z"/>
	<path class="st7" d="M32.4,39c0.1,0,0.2,0,0.3,0c0,0.1,0,0.2,0,0.3C32.6,39.2,32.5,39.1,32.4,39z"/>
	<path class="st0" d="M35.4,28c1,0.3,2,0.4,3,0.2c0.5,0.9,0.3,1.7-0.5,2.4c-0.7,0.6-1.4,0.2-1.9-0.2C35.1,29.9,34.9,29,35.4,28z"/>
	<path class="st0" d="M33,25.4c0.1,0.1,0.1,0.2,0.1,0.3c-0.1,0-0.3,0-0.4-0.1C32.8,25.6,32.9,25.5,33,25.4z"/>
	<path class="st12" d="M31.5,38.4c-4.3,0-8.6,0-12.9,0c-2,0-2,0-2.1-2.1c4.4,0,8.8,0,13.2,0C30.3,37.1,30.9,37.8,31.5,38.4z"/>
</g>
</svg>
