<svg class="svgicon" id="svg48" preserveAspectRatio="xMidYMid meet" xmlns="http://www.w3.org/2000/svg" viewBox="0 0 128 128"><rect x="0" y="0" width="128" height="128" style="fill: rgb(111, 192, 114)" rx="64" ry="64"></rect><g transform="scale(0.73) translate(23.671232876712327, 23.671232876712327)"><style> #svg48 path, #svg48 circle, #svg48 polygon, #svg48 rect { fill: rgb(255, 255, 255) } #svg48 defs &gt; path { fill: none }  #svg48 path[fill="none"], #svg48 circle[fill="none"], #svg48 polygon[fill="none"], #svg48 rect[fill="none"] { fill: none } </style><style type="text/css"> #svg48 .st0{fill:rgb(255, 255, 255);} </style><path class="st0" d="M117.022,23.504H17.756c-5.483,0-9.779,3.572-9.779,8.133v1.647v10.032v51.398 c0,5.393,4.388,9.779,9.779,9.779h92.487c5.392,0,9.778-4.387,9.778-9.779V43.632V26.504 C120.022,24.848,118.679,23.504,117.022,23.504z M81.971,33.933c0-1.641,1.328-2.97,2.966-2.97c1.64,0,2.968,1.329,2.968,2.97 c0,1.64-1.328,2.966-2.968,2.966C83.299,36.899,81.971,35.573,81.971,33.933z M91.75,33.933c0-1.641,1.328-2.97,2.968-2.97 c1.638,0,2.967,1.329,2.967,2.97c0,1.64-1.329,2.966-2.967,2.966C93.079,36.899,91.75,35.573,91.75,33.933z M101.53,33.933 c0-1.641,1.33-2.97,2.969-2.97c1.638,0,2.967,1.329,2.967,2.97c0,1.64-1.329,2.966-2.967,2.966 C102.86,36.899,101.53,35.573,101.53,33.933z M110.244,98.495H17.756c-2.084,0-3.779-1.695-3.779-3.779V46.133l100.045,0.484 v48.098C114.022,96.799,112.327,98.495,110.244,98.495z"></path><g id="Go_to_Web"></g></g></svg>