<svg class="svgicon" id="svg51" preserveAspectRatio="xMidYMid meet" xmlns="http://www.w3.org/2000/svg" viewBox="0 0 128 128"><rect x="0" y="0" width="128" height="128" style="fill: rgb(111, 192, 114)" rx="64" ry="64"></rect><g transform="scale(0.87) translate(9.563218390804597, 9.563218390804597)"><style> #svg51 path, #svg51 circle, #svg51 polygon, #svg51 rect { fill: rgb(255, 255, 255) } #svg51 defs &gt; path { fill: none }  #svg51 path[fill="none"], #svg51 circle[fill="none"], #svg51 polygon[fill="none"], #svg51 rect[fill="none"] { fill: none } </style><path d="M101.765,62.122l0.017-0.019l-0.019-0.017c10.601-12.218,14.201-22.943,9.837-29.548c-2.451-3.711-7.244-5.672-13.857-5.672 c-4.399,0-9.479,0.847-15.101,2.5l-0.004-0.02l-0.025,0.008c-0.898-2.922-1.894-5.588-2.977-7.979 c1.155-1.196,1.869-2.822,1.869-4.615c0-3.677-2.975-6.654-6.652-6.654c-0.875,0-1.708,0.173-2.473,0.48 c-2.613-2.386-5.438-3.646-8.378-3.646c-7.896,0-15.084,9.312-19.372,24.991l-0.012-0.003l-0.004,0.016 c-5.094-1.125-9.79-1.7-13.97-1.7c-8.743,0-14.674,2.496-17.158,7.22c-3.681,7.011,0.977,17.324,12.752,28.417l-0.017,0.018 l0.019,0.017c-10.604,12.217-14.205,22.944-9.842,29.549c1.244,1.883,3.095,3.312,5.475,4.267c0.495,3.183,3.241,5.625,6.565,5.625 c2.915,0,5.386-1.88,6.285-4.49c3.268-0.364,6.823-1.109,10.633-2.229l0.007,0.021l0.024-0.007 c4.383,14.253,11.121,22.408,18.614,22.408c7.895,0,15.082-9.311,19.364-24.987l0.013,0.002l0.004-0.017 c5.094,1.123,9.791,1.699,13.971,1.699c0,0,0,0,0.002,0c8.742,0,14.676-2.496,17.158-7.219 C118.192,83.529,113.535,73.216,101.765,62.122z M111.918,89.175c-1.917,3.645-7.088,5.651-14.564,5.651 c-3.946-0.001-8.399-0.541-13.255-1.607c0.139-0.581,0.257-1.186,0.389-1.776c0.129-0.583,0.263-1.159,0.382-1.751 c0.194-0.953,0.367-1.928,0.538-2.904c0.091-0.517,0.192-1.023,0.275-1.546c0.18-1.112,0.334-2.247,0.484-3.386 c0.049,0,0.097,0.007,0.146,0.007c3.677,0,6.655-2.979,6.655-6.65c0-1.228-0.338-2.374-0.918-3.36 c0.022-0.02,0.044-0.04,0.066-0.059c0.256-0.228,0.506-0.458,0.76-0.687c0.335-0.301,0.67-0.603,0.998-0.906 c0.266-0.245,0.525-0.491,0.786-0.737c0.308-0.29,0.615-0.579,0.916-0.869c0.259-0.249,0.513-0.498,0.768-0.747 c0.298-0.292,0.594-0.585,0.886-0.879c0.243-0.245,0.484-0.489,0.724-0.735c0.296-0.304,0.588-0.607,0.879-0.912 c0.224-0.235,0.447-0.471,0.667-0.706c0.101-0.109,0.208-0.218,0.308-0.326C110.217,74.129,114.849,83.592,111.918,89.175z M64.002,118.126c-6.039,0-11.907-7.58-15.831-20.361c0.194-0.064,0.391-0.136,0.586-0.202c0.262-0.089,0.526-0.181,0.791-0.272 c0.478-0.167,0.957-0.339,1.438-0.515c0.28-0.103,0.561-0.207,0.843-0.312c0.473-0.179,0.949-0.364,1.426-0.552 c0.285-0.112,0.568-0.223,0.854-0.338c0.488-0.198,0.978-0.403,1.467-0.61c0.274-0.116,0.548-0.228,0.821-0.346 c0.549-0.237,1.102-0.484,1.651-0.732c0.216-0.097,0.431-0.19,0.646-0.289c0.76-0.348,1.521-0.706,2.287-1.076 c0.226-0.109,0.452-0.226,0.679-0.336c0.541-0.265,1.082-0.533,1.625-0.809c0.34-0.173,0.681-0.353,1.021-0.53 c0.336-0.175,0.672-0.345,1.01-0.525l0.003,0.001l0.003-0.001c0.108,0.044,0.216,0.083,0.324,0.127 c1.184,0.479,2.361,0.942,3.533,1.377c0.026,0.01,0.053,0.019,0.079,0.028c1.169,0.433,2.33,0.84,3.486,1.229 c0.142,0.048,0.285,0.099,0.428,0.146c1.113,0.37,2.218,0.715,3.316,1.042c0.199,0.06,0.398,0.119,0.6,0.177 c1.083,0.315,2.158,0.611,3.224,0.884c0.066,0.017,0.137,0.039,0.203,0.056C76.656,109.453,70.388,118.126,64.002,118.126z M28.438,92.054c-2.949,0-5.447,1.92-6.319,4.578c-1.307-0.65-2.455-1.546-3.274-2.783c-3.476-5.261,0.186-15.14,9.561-25.972 c0.043,0.038,0.091,0.075,0.133,0.113c0.85,0.748,1.726,1.492,2.626,2.231c0.148,0.123,0.3,0.245,0.449,0.367 c0.905,0.735,1.83,1.465,2.782,2.189c0.126,0.096,0.255,0.19,0.381,0.286c0.959,0.723,1.938,1.441,2.942,2.152 c0.056,0.04,0.109,0.08,0.166,0.12c1.016,0.715,2.059,1.422,3.117,2.124c0.115,0.076,0.223,0.154,0.338,0.23v0.003l0.002,0.001 c0.042,0.414,0.088,0.819,0.134,1.229c0.034,0.324,0.067,0.65,0.104,0.972c0.087,0.738,0.18,1.469,0.275,2.196 c0.015,0.108,0.026,0.218,0.041,0.326c0.116,0.853,0.24,1.697,0.371,2.533c0.028,0.165,0.057,0.326,0.084,0.49 c0.104,0.652,0.214,1.3,0.329,1.94c0.05,0.285,0.105,0.565,0.158,0.848c0.096,0.51,0.193,1.018,0.296,1.519 c0.065,0.331,0.137,0.658,0.206,0.986c0.095,0.444,0.19,0.886,0.29,1.323c0.079,0.351,0.161,0.699,0.244,1.046 c0.097,0.405,0.194,0.806,0.296,1.205c0.091,0.361,0.183,0.722,0.277,1.078c0.039,0.145,0.073,0.294,0.113,0.439 c-3.373,0.991-6.587,1.681-9.527,2.055C34.624,94.595,31.83,92.054,28.438,92.054z M16.082,38.827 c1.915-3.644,7.086-5.651,14.562-5.651c3.946,0,8.399,0.541,13.253,1.608c-0.145,0.604-0.268,1.233-0.402,1.848 c-0.121,0.551-0.249,1.096-0.361,1.655c-0.206,1.014-0.391,2.05-0.572,3.089c-0.078,0.454-0.167,0.897-0.241,1.355 c-0.244,1.518-0.466,3.058-0.657,4.625c-0.008,0.064-0.013,0.132-0.021,0.197c-0.166,1.379-0.314,2.774-0.438,4.188l-0.002,0.002 v0.004c-0.419,0.332-0.827,0.667-1.238,1.001c-0.121,0.099-0.244,0.197-0.365,0.295c-1.293,1.062-2.55,2.133-3.766,3.213 c-0.135,0.12-0.267,0.241-0.4,0.361c-0.456,0.408-0.907,0.817-1.353,1.227c-0.204,0.19-0.405,0.381-0.607,0.571 c-0.366,0.344-0.73,0.688-1.09,1.033c-0.22,0.213-0.436,0.426-0.654,0.639c-0.335,0.328-0.667,0.657-0.994,0.986 c-0.217,0.218-0.431,0.435-0.643,0.653c-0.328,0.333-0.648,0.668-0.967,1.004c-0.198,0.207-0.394,0.414-0.588,0.621 c-0.113,0.121-0.23,0.242-0.342,0.363C17.783,53.874,13.15,44.411,16.082,38.827z M64.002,9.874c2.009,0,3.998,0.858,5.904,2.45 c-1.056,1.178-1.703,2.729-1.703,4.437c0,3.67,2.977,6.65,6.649,6.65c0.81,0,1.581-0.151,2.298-0.416 c0.964,2.182,1.865,4.593,2.679,7.243c-0.167,0.055-0.336,0.117-0.505,0.174c-0.312,0.105-0.625,0.214-0.94,0.324 c-0.433,0.151-0.867,0.307-1.303,0.466c-0.31,0.113-0.619,0.228-0.931,0.345c-0.448,0.169-0.897,0.345-1.349,0.522 c-0.303,0.119-0.604,0.237-0.909,0.36c-0.475,0.191-0.951,0.392-1.428,0.592c-0.283,0.119-0.564,0.236-0.848,0.358 c-0.545,0.234-1.092,0.479-1.638,0.725c-0.22,0.1-0.439,0.193-0.659,0.294c-0.763,0.348-1.527,0.708-2.297,1.08 c-0.19,0.091-0.38,0.189-0.569,0.282c-0.582,0.285-1.165,0.573-1.751,0.87c-0.305,0.155-0.613,0.318-0.92,0.478 c-0.367,0.19-0.734,0.376-1.103,0.572l-0.004-0.001l-0.003,0.002c-0.108-0.044-0.215-0.082-0.322-0.126 c-1.182-0.479-2.357-0.94-3.527-1.375c-0.032-0.012-0.064-0.024-0.098-0.036c-1.166-0.432-2.325-0.837-3.477-1.225 c-0.141-0.046-0.279-0.096-0.418-0.142c-1.119-0.371-2.229-0.718-3.332-1.046c-0.194-0.057-0.387-0.114-0.58-0.171 c-1.085-0.316-2.161-0.612-3.228-0.885c-0.069-0.017-0.142-0.04-0.211-0.057C51.344,18.547,57.612,9.874,64.002,9.874z M109.154,34.155c3.477,5.26-0.185,15.139-9.557,25.972c-0.067-0.06-0.141-0.119-0.209-0.178c-0.812-0.714-1.649-1.425-2.508-2.13 c-0.183-0.15-0.367-0.3-0.552-0.45c-0.887-0.719-1.79-1.433-2.721-2.14c-0.134-0.104-0.274-0.206-0.411-0.309 c-0.962-0.725-1.942-1.444-2.949-2.156c-0.043-0.031-0.086-0.063-0.131-0.094c-1.027-0.724-2.083-1.439-3.156-2.148 c-0.102-0.068-0.198-0.138-0.301-0.206v-0.002l-0.004-0.002c-0.04-0.404-0.086-0.802-0.13-1.204 c-0.036-0.333-0.069-0.667-0.106-0.998c-0.088-0.761-0.183-1.514-0.282-2.262c-0.012-0.083-0.021-0.167-0.032-0.25 c-0.117-0.862-0.242-1.716-0.375-2.56c-0.018-0.104-0.035-0.207-0.053-0.311c-0.115-0.718-0.235-1.43-0.362-2.135 c-0.04-0.227-0.085-0.449-0.126-0.674c-0.108-0.578-0.218-1.153-0.334-1.721c-0.054-0.261-0.109-0.52-0.163-0.778 c-0.111-0.529-0.227-1.054-0.345-1.575c-0.06-0.265-0.122-0.528-0.185-0.791c-0.122-0.517-0.248-1.03-0.378-1.538 c-0.062-0.243-0.123-0.484-0.187-0.725c-0.053-0.202-0.104-0.409-0.157-0.609c5.312-1.561,10.232-2.382,14.301-2.382 C101.636,29.798,106.774,30.554,109.154,34.155z M47.365,94.936c-0.027-0.1-0.056-0.197-0.082-0.298 c-0.27-1.013-0.524-2.042-0.765-3.094c-0.046-0.205-0.089-0.413-0.136-0.619c-0.209-0.946-0.406-1.906-0.594-2.881 c-0.041-0.217-0.085-0.432-0.126-0.651c-0.205-1.111-0.394-2.24-0.57-3.386c-0.037-0.245-0.071-0.492-0.107-0.738 c-0.157-1.065-0.302-2.143-0.433-3.236c-0.012-0.107-0.027-0.212-0.04-0.32c0.02,0.013,0.039,0.023,0.06,0.036 c1.25,0.773,2.518,1.522,3.795,2.257c0.295,0.17,0.591,0.338,0.888,0.507c1.29,0.731,2.587,1.449,3.896,2.136 c1.261,0.663,2.537,1.3,3.82,1.925c0.319,0.155,0.636,0.308,0.953,0.46c1.288,0.615,2.579,1.217,3.878,1.79 c0.005,0.002,0.01,0.005,0.015,0.007c-0.108,0.055-0.217,0.106-0.324,0.161c-0.979,0.493-1.951,0.965-2.921,1.422 c-0.232,0.109-0.467,0.221-0.699,0.329c-1.062,0.491-2.121,0.963-3.174,1.41c-0.203,0.086-0.405,0.168-0.609,0.253 c-0.952,0.398-1.897,0.777-2.838,1.138c-0.169,0.064-0.34,0.132-0.508,0.196c-1.048,0.395-2.089,0.764-3.121,1.111 C47.536,94.88,47.451,94.907,47.365,94.936z M30.369,65.692c0.07-0.076,0.138-0.152,0.208-0.228 c0.683-0.733,1.383-1.464,2.104-2.193c0.115-0.116,0.233-0.231,0.35-0.347c0.655-0.654,1.325-1.306,2.01-1.956 c0.168-0.158,0.332-0.316,0.501-0.474c0.785-0.736,1.589-1.47,2.413-2.199c0.12-0.107,0.246-0.213,0.367-0.32 c0.743-0.652,1.502-1.3,2.274-1.946c0.106-0.088,0.211-0.177,0.317-0.265c-0.011,0.176-0.014,0.354-0.023,0.53 c-0.054,0.993-0.096,1.988-0.129,2.988c-0.012,0.35-0.023,0.698-0.032,1.049c-0.031,1.222-0.053,2.446-0.053,3.67 c0,1.469,0.031,2.941,0.077,4.411c0.012,0.369,0.024,0.737,0.038,1.105c0.057,1.448,0.128,2.894,0.228,4.331 c0.003,0.031,0.003,0.063,0.006,0.094c-0.119-0.082-0.237-0.164-0.356-0.246c-0.726-0.5-1.44-1.004-2.144-1.511 c-0.174-0.125-0.35-0.25-0.522-0.376c-0.806-0.588-1.596-1.181-2.37-1.777c-0.186-0.144-0.367-0.288-0.552-0.431 c-0.652-0.509-1.293-1.021-1.921-1.535c-0.157-0.129-0.318-0.257-0.474-0.387c-0.727-0.603-1.434-1.208-2.126-1.816 C30.496,65.806,30.434,65.749,30.369,65.692z M47.006,35.527c0.881,0.227,1.77,0.466,2.665,0.723 c0.184,0.053,0.369,0.11,0.554,0.164c0.772,0.226,1.549,0.463,2.329,0.71c0.218,0.069,0.436,0.138,0.656,0.208 c0.919,0.298,1.844,0.611,2.774,0.939c0.176,0.062,0.351,0.128,0.527,0.191c0.799,0.287,1.601,0.584,2.407,0.892 c0.141,0.054,0.281,0.107,0.421,0.161c-0.005,0.002-0.007,0.005-0.012,0.008c-1.228,0.697-2.445,1.42-3.656,2.156 c-0.318,0.193-0.634,0.387-0.951,0.583c-1.206,0.746-2.404,1.502-3.584,2.281c-1.02,0.674-2.031,1.37-3.04,2.074 c-0.271,0.189-0.54,0.381-0.81,0.572c-0.829,0.588-1.652,1.185-2.469,1.791c-0.134,0.1-0.271,0.194-0.404,0.293 c0.034-0.313,0.06-0.634,0.096-0.946c0.053-0.438,0.107-0.874,0.162-1.308c0.141-1.097,0.295-2.18,0.463-3.251 c0.057-0.363,0.107-0.73,0.168-1.09c0.231-1.393,0.482-2.764,0.76-4.108c0.047-0.226,0.101-0.445,0.148-0.67 c0.176-0.824,0.37-1.626,0.562-2.43C46.851,35.489,46.927,35.507,47.006,35.527z M80.635,33.066c0.027,0.101,0.057,0.2,0.083,0.3 c0.268,1.01,0.522,2.037,0.762,3.084c0.05,0.215,0.095,0.436,0.142,0.652c0.207,0.93,0.402,1.873,0.585,2.831 c0.044,0.23,0.091,0.458,0.135,0.69c0.204,1.106,0.392,2.23,0.567,3.371c0.036,0.244,0.071,0.491,0.107,0.736 c0.16,1.085,0.308,2.183,0.439,3.298c0.011,0.087,0.022,0.173,0.032,0.261c-0.013-0.007-0.025-0.015-0.037-0.022 c-1.242-0.768-2.507-1.516-3.78-2.25c-0.313-0.179-0.624-0.356-0.938-0.534c-1.284-0.727-2.577-1.442-3.886-2.129 c-1.269-0.667-2.557-1.309-3.851-1.939c-0.298-0.145-0.596-0.289-0.895-0.432c-1.294-0.619-2.594-1.225-3.901-1.802 c-0.006-0.002-0.013-0.006-0.019-0.009c0.099-0.05,0.198-0.098,0.297-0.148c0.993-0.5,1.982-0.98,2.967-1.443 c0.229-0.107,0.459-0.218,0.688-0.323c1.063-0.492,2.122-0.963,3.174-1.41c0.21-0.09,0.419-0.174,0.629-0.262 c0.939-0.392,1.871-0.766,2.799-1.121c0.18-0.069,0.361-0.142,0.541-0.21c1.044-0.393,2.078-0.759,3.104-1.104 C80.466,33.122,80.55,33.095,80.635,33.066z M65.156,87.069c-0.395-0.167-0.79-0.336-1.185-0.507 c-0.427-0.184-0.853-0.365-1.278-0.554c-0.502-0.223-1.001-0.454-1.501-0.684c-0.42-0.192-0.842-0.381-1.261-0.578 c-0.528-0.249-1.053-0.507-1.58-0.762c-0.383-0.187-0.769-0.369-1.15-0.56c-0.901-0.448-1.798-0.905-2.687-1.373 c-0.913-0.48-1.825-0.974-2.733-1.477c-0.258-0.143-0.513-0.292-0.77-0.437c-0.644-0.363-1.289-0.726-1.927-1.1 c-0.336-0.196-0.666-0.397-0.999-0.596c-0.552-0.328-1.104-0.656-1.649-0.992c-0.381-0.233-0.756-0.473-1.133-0.709 c-0.391-0.246-0.779-0.491-1.167-0.739c-0.044-0.51-0.085-1.022-0.124-1.535c-0.028-0.381-0.062-0.762-0.087-1.145 c-0.044-0.646-0.078-1.296-0.112-1.946c-0.021-0.387-0.046-0.774-0.063-1.163c-0.031-0.696-0.052-1.394-0.073-2.091 c-0.009-0.339-0.025-0.678-0.032-1.018c-0.024-1.035-0.036-2.071-0.036-3.104c0-1.727,0.036-3.455,0.099-5.176 c0.004-0.104,0.006-0.208,0.01-0.312c0.065-1.659,0.163-3.309,0.288-4.944c0.006-0.102,0.014-0.204,0.021-0.306 c0.334-0.258,0.668-0.515,1.002-0.771c0.312-0.237,0.62-0.476,0.933-0.71c0.445-0.334,0.896-0.662,1.345-0.991 c0.299-0.219,0.596-0.44,0.896-0.657c0.484-0.349,0.973-0.69,1.461-1.032c0.27-0.189,0.538-0.382,0.809-0.569 c0.759-0.523,1.519-1.039,2.283-1.543c0.846-0.558,1.698-1.107,2.558-1.648c0.264-0.166,0.53-0.325,0.795-0.488 c0.595-0.37,1.19-0.739,1.793-1.101c0.338-0.203,0.679-0.398,1.018-0.597c0.534-0.314,1.066-0.628,1.604-0.934 c0.366-0.209,0.734-0.411,1.101-0.617c0.406-0.227,0.812-0.453,1.22-0.674c0.413,0.174,0.825,0.353,1.238,0.531 c0.404,0.175,0.809,0.347,1.213,0.526c0.541,0.24,1.08,0.489,1.619,0.736c0.38,0.175,0.76,0.345,1.138,0.523 c0.608,0.286,1.214,0.582,1.817,0.876c0.305,0.149,0.611,0.293,0.915,0.445c0.908,0.451,1.811,0.911,2.705,1.381 c0.923,0.485,1.841,0.982,2.753,1.488c0.241,0.134,0.48,0.274,0.721,0.41c0.663,0.374,1.325,0.748,1.98,1.13 c0.323,0.189,0.643,0.384,0.965,0.576c0.562,0.335,1.123,0.669,1.678,1.01c0.371,0.229,0.736,0.462,1.104,0.693 c0.395,0.247,0.787,0.495,1.178,0.746c0.037,0.417,0.068,0.836,0.102,1.255c0.038,0.489,0.08,0.977,0.112,1.468 c0.039,0.586,0.069,1.175,0.101,1.764c0.024,0.438,0.054,0.875,0.073,1.313c0.03,0.68,0.05,1.361,0.07,2.042 c0.011,0.352,0.026,0.702,0.034,1.055c0.024,1.035,0.036,2.07,0.036,3.104c0,1.552-0.034,3.112-0.088,4.673 c-0.002,0.065-0.004,0.131-0.006,0.197c-2.686,0.854-4.634,3.368-4.634,6.34c0,0.854,0.167,1.667,0.46,2.417 c-0.104,0.075-0.206,0.152-0.31,0.227c-0.457,0.328-0.919,0.65-1.379,0.974c-0.299,0.209-0.595,0.422-0.896,0.63 c-0.761,0.524-1.526,1.043-2.295,1.552c-0.849,0.561-1.707,1.113-2.569,1.655c-0.263,0.165-0.528,0.324-0.792,0.488 c-0.598,0.371-1.195,0.741-1.798,1.102c-0.342,0.205-0.685,0.402-1.028,0.604c-0.527,0.31-1.055,0.622-1.586,0.924 c-0.368,0.21-0.738,0.413-1.108,0.619C65.961,86.627,65.559,86.85,65.156,87.069z M87.24,68.63c0.011-0.314,0.021-0.627,0.029-0.942 c0.032-1.231,0.054-2.462,0.054-3.687c0-1.472-0.031-2.946-0.077-4.418c-0.012-0.363-0.023-0.724-0.038-1.087 c-0.058-1.462-0.13-2.923-0.231-4.375c-0.002-0.021-0.002-0.042-0.004-0.062c0.12,0.083,0.24,0.166,0.359,0.248 c0.736,0.506,1.459,1.016,2.172,1.53c0.156,0.113,0.314,0.225,0.47,0.338c0.817,0.596,1.618,1.197,2.403,1.802 c0.171,0.133,0.341,0.266,0.511,0.399c0.669,0.521,1.325,1.045,1.968,1.573c0.148,0.121,0.3,0.242,0.446,0.363 c0.732,0.606,1.444,1.216,2.143,1.829c0.062,0.056,0.125,0.112,0.188,0.169c-0.073,0.078-0.143,0.157-0.216,0.235 c-0.678,0.728-1.373,1.455-2.09,2.179c-0.121,0.122-0.247,0.244-0.369,0.366c-0.65,0.65-1.317,1.298-1.999,1.944 c-0.165,0.156-0.328,0.313-0.495,0.469c-0.787,0.737-1.59,1.471-2.415,2.201C89.227,69.146,88.271,68.774,87.24,68.63z M77.758,91.584c-0.76-0.223-1.523-0.457-2.292-0.701c-0.229-0.073-0.458-0.144-0.688-0.219c-0.912-0.296-1.826-0.605-2.749-0.931 c-0.19-0.067-0.383-0.139-0.574-0.208c-0.783-0.281-1.569-0.573-2.359-0.875c-0.145-0.056-0.29-0.11-0.436-0.167 c0.005-0.002,0.008-0.005,0.012-0.007c1.231-0.699,2.456-1.427,3.676-2.168c0.297-0.181,0.593-0.362,0.889-0.545 c1.218-0.753,2.43-1.518,3.625-2.307c1.028-0.681,2.046-1.38,3.055-2.085c0.271-0.189,0.54-0.381,0.811-0.572 c0.349-0.248,0.7-0.492,1.045-0.742c0.457,0.428,0.972,0.791,1.533,1.077c-0.134,1.04-0.279,2.069-0.438,3.085 c-0.059,0.375-0.112,0.753-0.174,1.124c-0.229,1.377-0.479,2.734-0.752,4.063c-0.056,0.268-0.118,0.526-0.176,0.792 c-0.169,0.791-0.354,1.562-0.541,2.333c-0.078-0.02-0.155-0.038-0.233-0.058c-0.879-0.226-1.765-0.465-2.656-0.721 C78.143,91.699,77.95,91.64,77.758,91.584z"></path></g></svg>