<?xml version="1.0" encoding="utf-8"?>
<!-- Generator: Adobe Illustrator 21.0.2, SVG Export Plug-In . SVG Version: 6.00 Build 0)  -->
<svg version="1.1" id="Layer_1" xmlns="http://www.w3.org/2000/svg" xmlns:xlink="http://www.w3.org/1999/xlink" x="0px" y="0px"
	 viewBox="0 0 74 74" style="enable-background:new 0 0 74 74;" xml:space="preserve">
<style type="text/css">
	.st0{fill:#4ABB95;}
	.st1{fill:#f5f5f5;}
	.st2{fill:#7ECFB4;}
	.st3{fill:#787878;}
	.st4{fill:#3B3A38;}
	.st5{fill:#BBBCBB;}
	.st6{fill:#D3D2D2;}
	.st7{fill:#4CCFA4;}
</style>
<g>
	<path class="st0" d="M0.3,41.6c0-1.7,0-3.5,0-5.2c0.3-0.9,0.1-1.8,0.1-2.8c-0.2-8,3.1-14.6,8-20.6C13,7.5,18.8,3.7,25.7,1.4
		c2.2-0.7,4.5-0.7,6.8-1c0.3,0,0.6,0.1,0.8-0.1c2.6,0,5.2,0,7.8,0c1.2,0.2,2.4,0.2,3.6,0.3C51,1.2,56.3,4.2,61.1,8.1
		c6.1,4.9,10.2,11.2,12.4,18.7c0.8,2.5,0.7,5.2,0.9,7.8c0.2,3.4,0.1,6.8-0.3,10.1c-0.6,5.2-2.9,9.8-5.8,14.1
		c-4.4,6.5-10.5,11-17.8,13.9c-3.2,1.3-6.6,1.5-10,1.7c-3.6,0.2-7.2,0-10.9-0.3c-4.2-0.4-8-2.2-11.6-4.3c-8.4-5-14-12.2-16.9-21.5
		C0.5,46.1,0.7,43.8,0.3,41.6z"/>
	<path class="st1" d="M0.3,41.6c0.5,0.5,0.4,1.2,0.5,1.7c3.1,17.6,18,30.6,35.4,30.9c18.3,0.3,33.6-11.7,37.3-29.5
		C78,24,63.5,3.4,42.2,0.6c-0.4-0.1-0.9,0.1-1.2-0.3c10.8,0,21.7,0,32.5,0c0.9,0,1,0.2,1,1c0,24.1,0,48.2,0,72.3c0,0.9-0.2,1-1,1
		c-24.1,0-48.2,0-72.3,0c-0.9,0-1-0.2-1-1C0.3,62.9,0.3,52.3,0.3,41.6z"/>
	<path class="st1" d="M33.2,0.3c-1.2,0.6-2.6,0.6-3.9,0.8C14.4,4.3,2.5,17.2,0.6,32.3c0,0.4-0.1,0.8-0.1,1.2c0,0.1,0,0.2-0.1,0.3
		c-0.1-0.1-0.1-0.1-0.2-0.2c0-10.7,0-21.5,0-32.2c0-0.9,0.2-1,1-1C11.9,0.3,22.6,0.3,33.2,0.3z"/>
	<path class="st2" d="M0.3,33.5c0.1-0.1,0.2-0.1,0.2-0.1c0.1,1,0.2,2-0.2,2.9C0.3,35.5,0.3,34.5,0.3,33.5z"/>
	<path class="st3" d="M15.9,42.7c-0.2-1.3,0.3-2.2,1.2-3.1c8.1-8,16.1-16,24.1-24c1.6-1.6,3.2-1.6,4.8-0.1c1.9,1.8,3.7,3.6,5.5,5.5
		c1.6,1.7,1.6,3.3,0,5c-3.3,3.3-6.6,6.6-9.9,9.9c-0.7,0.6-1.2-0.1-1.6-0.5c-1.3-1.2-2.6-2.6-3.9-3.8c-1-0.9-2.1-0.8-2.7,0.4
		c-0.4,0.8-0.1,1.4,0.4,1.9c1.3,1.3,2.6,2.6,3.8,3.9c0.4,0.4,1,0.9,0.4,1.6c-3.7,3.7-7.4,7.3-11.1,11c-0.8,0.8-1.7,0.9-2.8,0.8
		c-1,0.1-1.8-0.3-2.5-1.1c-1.6-1.7-3.2-3.3-4.9-4.9C16.2,44.5,15.7,43.7,15.9,42.7z"/>
	<path class="st4" d="M38.1,39.3c-1.7-1.7-3.4-3.5-5.1-5.2c-1.1-1.1-1-2,0.2-3.2c1.1-1.2,2.1-1.2,3.2-0.2c1.7,1.7,3.5,3.4,5.2,5.1
		c1.3,1.3,2.6,2.3,4.2,3.2c3,1.5,6,0.5,9,0.9c0.6,0.1,0.9-0.3,0.8-0.9c0-0.5,0-1,0-1.4c0-0.9-0.1-1.8,0.9-2.2
		c1.1-0.4,2.3-0.4,3.3,0.2c0.5,0.3,0.5,0.9,0.5,1.4c0,3.5,0,7,0,10.5c0,1.4-0.8,2-2.4,2c-1.6,0-2.4-0.6-2.4-2
		c-0.1-2.8-0.1-2.8-2.9-2.8c-1.2,0-2.4,0-3.6,0c-1.1,0-2,0.1-3,0.6c-1.8,1-4.1,0.2-4.7-1.7C40.9,41.7,39.4,40.7,38.1,39.3z"/>
	<path class="st5" d="M15.9,42.7c2.4,3.2,5.3,6,8.4,8.4c-1.2,0.8-2.5,0.6-3.7,0.6c-0.4,0-0.8,0.2-1.1-0.1c-1.7-1.6-3.6-2.9-4.6-5.1
		C15.2,45.3,14.9,43.8,15.9,42.7z"/>
	<path class="st6" d="M14.8,46.5c1.3,0.6,2.1,1.8,3.1,2.7c0.9,0.8,1.7,1.6,2.6,2.5c-0.8,0.9-1.6,0.8-2.3,0.1c-1.1-1-2.2-2.1-3.2-3.2
		C14.4,48,14.2,47.3,14.8,46.5z"/>
	<path class="st7" d="M60.9,36.8c0,3.7,0,7.4,0,11.1c0,0-0.1,0-0.1,0c0-3.7,0-7.3,0-11C60.9,36.9,60.9,36.8,60.9,36.8z"/>
</g>
</svg>
