<svg class="svgicon" id="svg47" preserveAspectRatio="xMidYMid meet" xmlns="http://www.w3.org/2000/svg" viewBox="0 0 128 128"><rect x="0" y="0" width="128" height="128" style="fill: rgb(111, 192, 114)" rx="64" ry="64"></rect><g transform="scale(0.76) translate(20.210526315789476, 20.210526315789476)"><style> #svg47 path, #svg47 circle, #svg47 polygon, #svg47 rect { fill: rgb(255, 255, 255) } #svg47 defs &gt; path { fill: none }  #svg47 path[fill="none"], #svg47 circle[fill="none"], #svg47 polygon[fill="none"], #svg47 rect[fill="none"] { fill: none } </style><style type="text/css"> #svg47 .st0{fill:rgb(255, 255, 255);} </style><path class="st0" d="M113.294,17.806H98.942c-1.475,0-2.73,1.071-2.963,2.527l-3.233,20.262H14.705c-0.918,0-1.784,0.42-2.354,1.14 s-0.777,1.66-0.565,2.553l9.094,38.325c0.321,1.353,1.529,2.308,2.919,2.308h61.874l-0.907,5.688H25.138 c-0.3,0-0.583,0.058-0.856,0.139c-4.65,0.759-8.215,4.793-8.215,9.654c0,5.401,4.393,9.795,9.792,9.795 c5.4,0,9.794-4.394,9.794-9.795c0-1.344-0.273-2.626-0.766-3.793h42.248c-0.492,1.167-0.766,2.449-0.766,3.793 c0,5.401,4.393,9.795,9.792,9.795c5.401,0,9.795-4.394,9.795-9.795c0-3.775-2.151-7.053-5.29-8.687l10.836-67.908h11.792 c1.657,0,3-1.344,3-3C116.294,19.148,114.951,17.806,113.294,17.806z M79.059,50.622v25.273c0,0.828-0.672,1.5-1.5,1.5 s-1.5-0.672-1.5-1.5V50.622c0-0.829,0.672-1.5,1.5-1.5S79.059,49.793,79.059,50.622z M64.08,50.622v25.273 c0,0.828-0.672,1.5-1.5,1.5s-1.5-0.672-1.5-1.5V50.622c0-0.829,0.672-1.5,1.5-1.5S64.08,49.793,64.08,50.622z M49.102,50.622 v25.273c0,0.828-0.672,1.5-1.5,1.5s-1.5-0.672-1.5-1.5V50.622c0-0.829,0.672-1.5,1.5-1.5S49.102,49.793,49.102,50.622z M34.124,50.622v25.273c0,0.828-0.672,1.5-1.5,1.5s-1.5-0.672-1.5-1.5V50.622c0-0.829,0.672-1.5,1.5-1.5 S34.124,49.793,34.124,50.622z"></path></g></svg>