<?xml version="1.0" encoding="utf-8"?>
<!-- Generator: Adobe Illustrator 21.0.2, SVG Export Plug-In . SVG Version: 6.00 Build 0)  -->
<svg version="1.1" id="Layer_1" xmlns="http://www.w3.org/2000/svg" xmlns:xlink="http://www.w3.org/1999/xlink" x="0px" y="0px"
	 viewBox="0 0 74 74" style="enable-background:new 0 0 74 74;" xml:space="preserve">
<style type="text/css">
	.st0{fill:#344E5D;}
	.st1{display:none;fill:#FEFEFE;}
	.st2{fill:#DBDBC5;}
	.st3{fill:#E2A924;}
	.st4{fill:#E7E5CC;}
	.st5{fill:#EFEED8;}
	.st6{fill:#BBBDA9;}
	.st7{fill:#D1962A;}
	.st8{fill:#D89927;}
	.st9{fill:#1C3A4E;}
	.st10{fill:#BF8720;}
	.st11{fill:#B4B4B6;}
	.st12{fill:#D2D2C5;}
	.st13{fill:#314C5E;}
	.st14{fill:#2D4A5F;}
</style>
<g>
	<path class="st0" d="M41.3,74c-2.9,0-5.8,0-8.7,0c-2.2-0.5-4.6-0.3-6.8-1c-5.1-1.6-9.6-4.1-13.6-7.6C6.7,60.6,3.1,54.8,0.9,47.9
		c-0.7-2.2-0.5-4.5-1-6.7c0-2.8,0-5.6,0-8.4c0.2-1,0.2-2.1,0.3-3.1c0.5-5.8,3.2-10.9,6.6-15.4C11.7,7.8,18.2,3.4,26,0.9
		c2.2-0.7,4.5-0.5,6.6-1c2.8,0,5.6,0,8.4,0c1,0.2,2.1,0.2,3.1,0.3c5.7,0.6,10.6,3,15.1,6.3c6.9,5,11.5,11.7,13.9,19.8
		c0.6,2.1,0.4,4.4,0.8,6.5c0,2.9,0,5.8,0,8.7c-0.5,2.1-0.3,4.3-1,6.4c-1.5,4.8-3.8,9-6.9,12.9c-4.4,5.4-10,9.1-16.4,11.6
		c-2.5,1-5.1,1.1-7.8,1.3C41.7,73.8,41.5,73.8,41.3,74z"/>
	<path class="st1" d="M32.6-0.1c-0.9,0.6-1.9,0.5-2.9,0.7C14.2,3.8,2.7,16,0.3,31.9c-0.1,0.4,0.1,0.8-0.3,1c0-10.7,0-21.3,0-32
		c0-0.9,0.2-1,1-1C11.5,0,22.1-0.1,32.6-0.1z"/>
	<path class="st1" d="M74,32.9c-0.6-1.5-0.6-3.1-1-4.6c-3.7-15-15.8-25.9-31.1-28.1c-0.3,0-0.7,0.1-0.9-0.3c10.7,0,21.3,0,32,0
		c0.9,0,1,0.2,1,1C74,11.6,74,22.3,74,32.9z"/>
	<path class="st1" d="M-0.1,41.3c0.6,0.9,0.5,2,0.7,3c3.2,15.2,14.9,26.5,30.2,29.2c0.6,0.1,1.3,0,1.7,0.5C22.1,74,11.6,74,1,74
		c-0.9,0-1.1-0.2-1.1-1.1C0,62.4-0.1,51.8-0.1,41.3z"/>
	<path class="st1" d="M41.3,74c1-0.6,2.2-0.5,3.3-0.8c15-3.2,26.3-15,28.9-30.1c0.1-0.5-0.1-1.2,0.5-1.6C74,52,74,62.5,74,73
		c0,0.9-0.2,1-1,1C62.4,74,51.9,74,41.3,74z"/>
	<path class="st2" d="M48,40.4c0.4,0.5,0.9,0.2,1.3,0.2c3.3,0,6.5,0,9.8,0c0.7,0,1.4-0.1,1.8,0.7c0.2,3.7,0.1,7.3,0.1,11
		c0,1.4-0.4,1.7-1.7,1.7c-3.6,0-7.1,0-10.7,0c-11.1,0-22.2,0-33.2,0c-0.6-0.3-0.6-0.9-0.6-1.5c0-4.9,0-9.7,0-14.6
		c0-1.3,0.6-1.8,1.8-1.8c3.6,0,7.1,0,10.7,0c1,0,1.4-0.2,1.4-1.3c-0.1-2.5,0-5,0-7.5c0-0.6-0.1-1.3,0.6-1.6c5.6-0.1,11.1-0.1,16.7,0
		c1.4,0,1.7,0.2,1.7,1.7c0,3.6,0,7.1,0,10.7c0-3.5,0-7,0-10.5c0-0.5-0.2-1,0.2-1.4c0.4,0.5,0.2,1,0.2,1.5c0,4.2,0,8.3,0.1,12.5
		c0.1,0.1,0.1,0.1,0.1,0.2C48.1,40.4,48,40.4,48,40.4z"/>
	<path class="st3" d="M45,14.1c-0.2,0.2-0.3,0.6-0.5,0.7c-2.1,1.1-2.6,3.4-3.9,5.1c-0.4,0.5-0.8,1.6-1,2.5c-0.1,0.6,0.1,0.8,0.6,1.1
		c0.6,0.4,1.2,0.8,0.5,1.6c-1.8,0.3-3.5,0.2-5.3,0.1c-0.7-0.8-0.1-1.3,0.5-1.7c0.5-0.3,0.8-0.6,0.5-1.1c-0.6-1-0.9-2.1-1.5-3.1
		c-1-2-2.7-3.3-3.9-5.1c-0.2-0.4,0.1-0.5,0.4-0.6c0.5-0.1,0.9,0.4,1.4,0.5c0.6-1.2-0.7-1.4-1-2c-0.4-0.6-0.4-1,0.5-0.8
		c2.5,0,4.9-0.5,7.4-0.4c1.3,0,2.4,0.9,3.7,0.4c0.3-0.1,0.6-0.2,0.9,0c0.2,0.3,0,0.5-0.1,0.7c-0.3,0.6-1.4,0.8-1.1,1.9
		c0.5-0.1,0.8-0.8,1.3-0.7C45.1,13.2,45.1,13.6,45,14.1z"/>
	<path class="st4" d="M15.3,54c0.6-0.4,1.3-0.3,2-0.3c13.7,0,27.4,0,41.1,0c2.3,0,2.3,0,2.3-2.3c0-2.8,0-5.7,0-8.5
		c0-0.5-0.1-1.1,0.2-1.5c0.3,0.4,0.2,0.8,0.2,1.2c0,3.3,0,6.5,0,9.8c0,1.3-0.5,1.9-1.9,1.9c-14.3,0-28.5,0-42.8,0
		C16.1,54.3,15.6,54.4,15.3,54z"/>
	<path class="st5" d="M47.7,26.2c0,4.6,0,9.1,0,13.7c-0.1,0-0.2,0-0.3,0c0-1.6,0-3.3,0-4.9c0-2.5,0-4.9,0-7.4c0-1.2-0.4-1.7-1.7-1.7
		c-5,0-9.9,0-14.9,0c-0.6,0-1.2,0.1-1.7-0.2c0-0.1,0.1-0.1,0.2-0.1c5.9-0.3,11.9-0.3,17.8,0C47.4,25.7,47.6,25.9,47.7,26.2z"/>
	<path class="st6" d="M47.1,25.6c-5.9,0-11.9,0-17.8,0c2-0.5,4.1,0,6.1-0.2c1.8-0.4,3.5-0.4,5.3,0C42.8,25.6,45,25.1,47.1,25.6z"/>
	<path class="st7" d="M45,14.1c-0.2-0.3-0.3-0.6-0.5-0.8c-0.8-0.3-0.5-0.9-0.6-1.5c0.6-0.6,0-0.5-0.3-0.6c0.7-0.2,1.6-0.8,2.1-0.1
		C46.3,12.1,45.7,13.2,45,14.1z"/>
	<path class="st8" d="M32.5,11.2c-0.6,0.1-0.4,0.3-0.1,0.6c-0.3,0.7,0.2,1.5-0.6,2.1c-0.2,0.1-0.4,0.2-0.6,0.3
		c-0.2-0.3-0.4-0.6-0.6-1c-0.3-0.7-0.6-1.5,0-2.1C31.2,10.5,31.8,11,32.5,11.2z"/>
	<path class="st9" d="M48,40.4c0-0.1,0-0.2,0-0.3c3.8,0,7.7,0,11.5,0c0,0.1,0,0.2,0,0.3C55.7,40.4,51.8,40.4,48,40.4z"/>
	<path class="st10" d="M40.7,25.4c-1.8,0-3.5,0-5.3,0c0-0.1,0-0.1,0-0.2c1.8-0.6,3.5-0.5,5.3-0.1C40.7,25.2,40.7,25.3,40.7,25.4z"/>
	<path class="st11" d="M55,43.6c1.9,0,3,1.5,2.1,3.1c-0.3,0.5-0.2,0.8,0.1,1.1c0.8,0.8,0.8,1.8,0.3,2.7c-0.5,1-1.5,1.5-2.6,1.4
		c-1.1,0-1.9-0.6-2.5-1.5c-0.2-0.4-0.3-0.9,0.1-1.2c0.5-0.3,0.8,0.1,1,0.5c0.4,0.7,0.9,1.4,1.8,0.9c0.5-0.3,1-0.7,0.9-1.4
		c-0.1-0.7-0.6-1.1-1.4-1.3c-0.4-0.1-1,0.1-1.1-0.5c0-0.7,0.6-0.6,1-0.7c0.6-0.1,1-0.4,1-1c0-0.4-0.3-0.7-0.6-0.9
		c-0.6-0.2-1,0-1.4,0.5c-0.3,0.4-0.5,1.1-1.2,0.5c-0.7-0.6-0.1-1,0.3-1.4C53.6,43.9,54.2,43.6,55,43.6z"/>
	<path class="st11" d="M22,48.8c-0.7-0.2-2,0.5-2.5-0.5c-0.5-1.2,0.8-1.7,1.5-2.4c0.5-0.6,1.3-1,1.8-1.6c0.6-0.6,0.9-1.5,0-2.1
		c-0.8-0.6-1.6-0.3-2,0.6c-0.2,0.5-0.6,1.1-1.2,0.6c-0.6-0.4-0.3-1,0.1-1.5c0.9-1.3,3.1-1.6,4.3-0.7c1.2,1,1.1,2.5-0.2,3.9
		c-0.6,0.6-1.2,1.1-1.8,1.7c-0.2,0.2-0.4,0.3-0.3,0.6c0.1,0.3,0.4,0.3,0.6,0.3c0.6,0,1.3,0,1.9,0c0.4,0,0.8,0.1,0.8,0.6
		c0,0.5-0.5,0.5-0.9,0.6C23.4,48.8,22.8,48.8,22,48.8z"/>
	<path class="st11" d="M39,31.7c0,1,0,1.9,0,2.9c0,0.5,0,1.2-0.8,1.1c-0.6,0-0.7-0.6-0.7-1.1c0-1.2,0-2.3,0-3.5c0-0.6,0-1.3-0.9-0.6
		c-0.5,0.3-1,0.6-1.4,0.1c-0.4-0.7,0.4-0.8,0.8-1.1c0.6-0.4,1.1-0.9,1.6-1.4c0.3-0.3,0.5-0.6,1-0.4c0.4,0.2,0.4,0.6,0.4,1
		C39,29.6,39,30.7,39,31.7z"/>
	<path class="st12" d="M38.2,12.6c0.5,0.1,1.2-0.2,1.7,0.2c0.4,0.4,0.2,1,0.2,1.5c0,0.5-0.5,0.5-0.9,0.5c-0.6,0-1.2,0-1.7,0
		c-0.7,0-1.5,0.2-1.6-1.1c0-1.3,0.7-1.2,1.6-1.2C37.7,12.6,37.9,12.6,38.2,12.6z"/>
	<path class="st13" d="M31.7,13.8c0.2-0.7-0.8-1.7,0.6-2.1c1.4,0.6,1.9,1.8,1.4,3.3c-0.1,0.5-0.3,0.6-0.7,0.2
		C32.7,14.8,32.2,14.3,31.7,13.8z"/>
	<path class="st14" d="M43.9,11.8c1,0.2,0.5,1,0.6,1.5c-0.5,0.9-0.9,1.7-1.9,2.2C41.9,13.4,42.2,12.5,43.9,11.8z"/>
</g>
</svg>
