<svg class="svgicon" id="svg52" preserveAspectRatio="xMidYMid meet" xmlns="http://www.w3.org/2000/svg" viewBox="0 0 128 128"><rect x="0" y="0" width="128" height="128" style="fill: rgb(111, 192, 114)" rx="64" ry="64"></rect><g transform="scale(0.7) translate(27.428571428571434, 27.428571428571434)"><style> #svg52 path, #svg52 circle, #svg52 polygon, #svg52 rect { fill: rgb(255, 255, 255) } #svg52 defs &gt; path { fill: none }  #svg52 path[fill="none"], #svg52 circle[fill="none"], #svg52 polygon[fill="none"], #svg52 rect[fill="none"] { fill: none } </style><style type="text/css"> #svg52 .st0{fill:rgb(255, 255, 255);} </style><path class="st0" d="M68.25,17.25c-1.658,0-3,1.343-3,3v45h-45c-1.658,0-3,1.343-3,3c0,28.121,22.879,51,51,51s51-22.879,51-51 S96.371,17.25,68.25,17.25z"></path><path class="st0" d="M59.75,58.25v-48c0-0.828-0.672-1.5-1.5-1.5c-27.295,0-49.5,22.206-49.5,49.5c0,0.828,0.672,1.5,1.5,1.5h48 C59.078,59.75,59.75,59.078,59.75,58.25z"></path></g></svg>