<?xml version="1.0" encoding="utf-8"?>
<!-- Generator: Adobe Illustrator 21.0.2, SVG Export Plug-In . SVG Version: 6.00 Build 0)  -->
<svg version="1.1" id="Layer_1" xmlns="http://www.w3.org/2000/svg" xmlns:xlink="http://www.w3.org/1999/xlink" x="0px" y="0px"
	 viewBox="0 0 74 74" style="enable-background:new 0 0 74 74;" xml:space="preserve">
<style type="text/css">
	.st0{fill:#D7DAB9;}
	.st1{fill:#f5f5f5;}
	.st2{fill:#868778;}
	.st3{fill:#C59B28;}
	.st4{fill:#703D1A;}
</style>
<g>
	<path class="st0" d="M33.8,0.3c2.3,0,4.6,0,6.9,0c0.9,0.3,1.8,0.2,2.7,0.2c7,0.6,12.8,3.7,18,8.1c5.7,4.7,9.6,10.7,11.8,17.8
		c0.8,2.5,1,5.1,1.1,7.7c0.3,7.2-0.3,14.2-3.9,20.7c-5.6,10-13.8,16.4-24.9,19.1c-3.7,0.9-7.6,0.6-11.4,0.5
		c-7.1-0.1-13.4-2.7-19-6.8C8.1,62.4,3.3,55.5,1,46.9c-0.5-2-0.4-4.1-0.7-6.1c0-2.3,0-4.6,0-6.9c0.4-0.8,0.2-1.7,0.2-2.6
		c0.6-7.2,3.8-13.2,8.4-18.5c4.7-5.5,10.5-9.3,17.4-11.4c2.1-0.6,4.1-0.7,6.2-0.9C33,0.4,33.4,0.6,33.8,0.3z"/>
	<path class="st1" d="M0.3,40.8c0.3,1.4,0.6,2.9,0.8,4.3C3.9,59.3,16.6,71.4,31,73.8C42,75.5,52,73,60.6,66
		c7.7-6.2,12.3-14.4,13.4-24.4c1.2-10.2-1.5-19.3-7.8-27.3C60.5,7,53,2.6,43.8,0.8c-1-0.2-2.1-0.1-3.1-0.6c10.9,0,21.9,0,32.8,0
		c0.9,0,1,0.2,1,1c0,24.1,0,48.2,0,72.3c0,0.9-0.2,1-1,1c-24.1,0-48.2,0-72.3,0c-0.9,0-1-0.2-1-1C0.3,62.6,0.3,51.7,0.3,40.8z"/>
	<path class="st1" d="M33.8,0.3c-1.4,0.3-2.8,0.6-4.2,0.8C15.2,4,3.4,16.2,0.8,30.7c-0.2,1-0.1,2.1-0.6,3.1c0-10.8,0-21.6,0-32.4
		c0-0.9,0.2-1.1,1.1-1.1C12.2,0.3,23,0.3,33.8,0.3z"/>
	<path class="st2" d="M31.7,63.4c-1.7,0.5-2.3-0.3-2.7-1.8c-0.8-2.8-3.7-4-6.3-2.6c-0.6,0.3-1.3,1.1-1.9,0.6c-1-0.7-2-1.6-2.6-2.7
		c-0.3-0.6,0.5-1.4,0.9-2c1.1-2.3-0.1-5.2-2.5-6c-0.7-0.2-1.8-0.2-2-0.9c-0.3-1.1-0.1-2.4-0.1-3.6c0-0.3,0.3-0.5,0.6-0.6
		c0.4-0.1,0.8-0.4,1.2-0.4c2.7-0.2,2.7-2.7,3.5-4.4c0.4-0.8-0.7-1.8-1.2-2.7c-0.5-0.8-0.3-1.3,0.3-2c2.1-2,2-2.1,4.6-0.8
		c0.8,0.4,1.5,0.3,2.4,0.1c2.1-0.6,3.2-1.8,3.5-3.9c0.1-0.8,0.6-1.1,1.4-1c0.1,0,0.3,0,0.4,0c2.7,0,2.7,0,3.5,2.6
		c0.3,0.9,0.6,1.6,1.6,1.7c0.2,0,0.5,0.1,0.7,0.3c1.5,1.1,2.9,0.7,4.2-0.3c1-0.7,1.8-0.7,2.5,0.3c0.1,0.1,0.2,0.2,0.3,0.3
		c1.4,1,1.7,2.1,0.6,3.4c-1.7,2,0.1,3.7,0.7,5.4c0.3,0.8,1.5,0.7,2.3,0.9c1.2,0.3,1.8,0.8,1.6,2.1c-0.1,0.5-0.1,1.1,0,1.6
		c0.1,0.8-0.3,1.2-1,1.3c0,0-0.1,0-0.1,0c-2.9,0-3.3,2.4-4.2,4.4c-0.4,0.8,0.5,1.3,0.7,2c0.2,0.7,1.2,1.4,0.8,2.1
		c-0.6,1-1.6,1.9-2.6,2.7c-0.4,0.4-1-0.1-1.3-0.4c-2.1-2-4.1-0.5-6.1,0.3c-0.7,0.3-0.7,1.2-0.9,1.9C34.2,63,33.5,64,31.7,63.4z"/>
	<path class="st3" d="M50,15.4c-0.1,0.5-0.5,0.8-0.8,1.1c-1.2,1.4-0.9,3.4,0.7,4.3c0.8,0.4,1.3,0.8,1,1.9c-0.3,1.1-0.6,1.6-1.9,1.6
		c-1.7,0-2.9,1.8-2.5,3.5c0.2,0.7,0.6,1.4-0.5,1.9c-0.9,0.4-1.6,1.1-2.6,0c-1.3-1.4-3.4-1-4.4,0.8c-0.6,1-1.2,0.9-2.1,0.7
		c-1-0.2-1.3-0.7-1.3-1.7c0-1.8-1.8-3.1-3.6-2.6c-1,0.3-1.5,0.1-2-0.8c-0.4-0.8-0.7-1.4,0.1-2.2c1.4-1.5,1.1-3.5-0.7-4.5
		c-1.1-0.6-0.8-1.3-0.7-2.1c0.2-0.9,0.6-1.2,1.5-1.3c2-0.1,3.3-1.7,2.7-3.6c-0.4-1.4,0.5-1.6,1.2-2.2c0.8-0.7,1.3-0.2,1.8,0.3
		c1.5,1.4,3.4,1.1,4.5-0.7c0.4-0.7,0.7-1.2,1.7-0.9c0.9,0.3,1.7,0.3,1.8,1.6c0.1,2.2,1.6,3.2,3.7,2.7C48.5,13.2,50,14.4,50,15.4z"/>
	<path class="st4" d="M49.3,25.7c0.2,0.1,0.5,0.3,0.7,0.5c1.4,0.9,2.8,0.6,3.6-1c0.4-0.8,0.8-0.8,1.5-0.7c0.7,0.1,1.1,0.2,1.3,1
		c0.3,1.8,1.6,2.5,3.2,1.9c0.9-0.4,1.1,0.2,1.5,0.6c0.4,0.5,0.7,0.9,0.2,1.6c-1.1,1.4-0.7,2.9,0.9,3.6c0.7,0.3,0.8,0.8,0.7,1.5
		c-0.1,0.6-0.2,1.1-1,1.3c-1.9,0.3-2.6,1.5-1.9,3.4c0.3,0.8-0.2,1-0.6,1.4c-0.4,0.3-0.8,0.8-1.5,0.3c-1.7-1.1-2.8-0.9-3.8,1
		c-0.4,0.7-0.9,0.5-1.5,0.5c-0.6-0.1-1-0.2-1.2-0.9c-0.4-1.9-1.5-2.5-3.3-1.9c-1,0.3-1.1-0.4-1.6-0.9c-0.4-0.4-0.5-0.8-0.1-1.3
		c1.1-1.5,0.8-2.9-0.9-3.7c-0.7-0.3-0.7-0.8-0.6-1.4c0.1-0.6,0.1-1.2,1-1.3c1.9-0.3,2.5-1.5,2-3.3C47.6,27,48.6,25.6,49.3,25.7z"/>
	<path class="st0" d="M31.6,55.3c-5,0-9.1-4.2-9.1-9.1c0-4.9,4.2-9.1,9.2-9.1c5.1,0,9.2,4.1,9.2,9.2C40.9,51.3,36.8,55.3,31.6,55.3z
		"/>
	<path class="st0" d="M45.7,20.2c0,3.4-2.7,6.1-6,6c-3.3,0-5.9-2.7-5.9-6c0-3.3,2.7-6,6-6C42.9,14.2,45.7,16.9,45.7,20.2z"/>
	<path class="st0" d="M53.8,38.2c-2.7,0-4.8-2.1-4.8-4.7c0-2.6,2.1-4.8,4.8-4.8c2.6,0,4.8,2.2,4.8,4.8
		C58.6,36.1,56.5,38.2,53.8,38.2z"/>
</g>
</svg>
