<?xml version="1.0" encoding="utf-8"?>
<!-- Generator: Adobe Illustrator 21.0.2, SVG Export Plug-In . SVG Version: 6.00 Build 0)  -->
<svg version="1.1" id="Layer_1" xmlns="http://www.w3.org/2000/svg" xmlns:xlink="http://www.w3.org/1999/xlink" x="0px" y="0px"
	 viewBox="0 0 74 74" style="enable-background:new 0 0 74 74;" xml:space="preserve">
<style type="text/css">
	.st0{fill:#64AA45;}
	.st1{display:none;fill:#FDFDFD;}
	.st2{display:none;fill:#FDFEFD;}
	.st3{fill:#82BA69;}
	.st4{fill:#FCFDFC;}
	.st5{display:none;fill:#FCFDFB;}
	.st6{display:none;fill:#FBFCFA;}
	.st7{fill:#56A134;}
	.st8{fill:#5EA63E;}
	.st9{fill:#4E9D2A;}
	.st10{fill:#53A031;}
	.st11{fill:#5FA73F;}
	.st12{fill:#52A02F;}
</style>
<g>
	<path class="st0" d="M0,41c0-0.7,0-1.3,0-2c0.4-1.5,0.5-3.1,0-4.6c0-0.6,0-1.2,0-1.7c0.6-0.4,0.4-1.1,0.5-1.7
		C3.1,15.3,15.3,3.1,31,0.5c0.6-0.1,1.3,0.1,1.7-0.5c0.6,0,1.2,0,1.7,0c1.5,0.5,3.1,0.4,4.6,0c0.6,0,1.2,0,1.7,0
		c0.2,0.4,0.6,0.3,0.9,0.3c16,2.2,28.4,13.8,31.6,29.6c0.3,1.3,0.2,2.7,0.8,3.9c0,2.1,0,4.2,0,6.4c-0.5,0.3-0.3,0.8-0.3,1.2
		C71.5,57.5,59.9,70,43.9,73.2c-1.3,0.3-2.8,0.2-4,0.7c-2.1,0-4.2,0-6.4,0c-0.3-0.5-0.9-0.3-1.3-0.4C16.1,71.2,4,59.8,0.7,44.1
		C0.5,43,0.6,42,0,41z M24.9,42.1c-0.2-0.1-0.4-0.4-0.5-0.4c-2.3,0-4.6,0-7,0c-0.2,0-0.4,0.3-0.6,0.4c-0.8,0.3-1.3,0.8-1.6,1.6
		c-0.5,0.3-0.5,0.8-0.5,1.3c0,3.6,0,7.2,0,10.8c0,0.5,0,1,0.5,1.2c0.3,0.5,0.7,0.9,1.2,1.3c0.1,0.1,0.3,0.3,0.4,0.3
		c2.7,0.1,5.4,0.4,8.1-0.2c0.4-0.4,0.8-0.9,1.2-1.3c0-0.1,0.1-0.3,0.1-0.4c0-4.3,0-8.7,0-13c0-0.2,0-0.3-0.1-0.5
		C25.8,42.8,25.3,42.5,24.9,42.1z M41.1,13.9c-0.4-0.4-0.9-0.6-1.5-0.6c-4.6,0-9.1,0-13.7,0c-0.5,0-1.2-0.2-1.5,0.5
		c-0.3,0.8,0.1,1.2,0.6,1.7c1.7,1.7,3.4,3.4,5,5.1c0,0.2,0,0.3,0,0.5c-0.5,0.5-1,1.1-1.5,1.6c-2.5,2.6-5.1,5.1-7.6,7.6
		c-1.3,1.3-0.9,3.2,0.9,3.8c1,0.3,1.7-0.2,2.4-0.9c2.9-2.8,5.7-5.7,8.6-8.5c0.4,0,0.9,0,1.3,0c1.5,1.4,3,2.8,4.4,4.3
		c0.8,0.9,1.6,1.2,2.7,0.5c0.2-0.4,0.3-0.9,0.3-1.4c0-4.4,0-8.7,0-13.1C41.6,14.7,41.6,14.2,41.1,13.9z M40.2,33.1
		c-2.9-0.8-5.8-0.8-8.7,0c-0.5,0.4-1,0.8-1.2,1.5C30.2,34.7,30,34.8,30,35c0,0.1,0.2,0.2,0.3,0.2c0,6.7,0.1,13.3,0,20
		c0,1.3,0.2,2.3,1.3,3.1c2.7,0.7,5.4,0.3,8.1,0.2c0.1,0,0.3-0.2,0.4-0.4c0.5-0.5,1.3-0.7,1.2-1.5c0.7-0.3,0.5-1,0.5-1.5
		c0-6.3,0-12.6,0-18.8c0-0.6,0-1.3-0.5-1.7C41.1,34,40.7,33.5,40.2,33.1z M56.9,25.5c-0.4-0.7-0.9-1.3-1.7-1.5
		c-0.2-0.4-0.5-0.6-0.9-0.6c-2,0-4,0-6,0c-0.4,0-0.7,0.2-0.9,0.6c-0.7,0.3-1.2,0.8-1.5,1.4c-0.6,0.3-0.5,0.9-0.5,1.4
		c0,9.5,0,19,0,28.4c0,0.5-0.1,1.1,0.5,1.4c0.2,0.7,0.7,1.1,1.2,1.5c0.4,0.5,0.9,0.5,1.4,0.5c2.4-0.2,4.8,0.4,7.1-0.3
		c0.5-0.5,1-1,1.3-1.7c0.7-0.3,0.6-0.9,0.6-1.5c0-9.4,0-18.8,0-28.2C57.5,26.4,57.6,25.7,56.9,25.5z"/>
	<path class="st1" d="M39.9,74c1.3-0.6,2.7-0.5,4-0.7c16-3.2,27.6-15.7,29.7-31.9c0.1-0.4-0.1-0.9,0.3-1.2C74,51.1,74,62,74,73
		c0,0.9-0.2,1-1,1C61.9,74,50.9,74,39.9,74z"/>
	<path class="st2" d="M74,33.8c-0.6-1.2-0.5-2.6-0.8-3.9C70,14.2,57.6,2.5,41.6,0.3c-0.3,0-0.7,0.1-0.9-0.3C51.5,0,62.2,0,73,0
		c0.9,0,1,0.2,1,1C74,12,74,22.9,74,33.8z"/>
	<path class="st2" d="M0,41c0.6,0.9,0.5,2,0.7,3C4,59.8,16.1,71.2,32.2,73.6c0.4,0.1,1-0.1,1.3,0.4c-10.8,0-21.6,0-32.4,0
		C0.2,74,0,73.8,0,72.9C0,62.3,0,51.7,0,41z"/>
	<path class="st1" d="M32.7,0c-0.5,0.6-1.1,0.4-1.7,0.5C15.3,3.1,3.1,15.3,0.5,31c-0.1,0.6,0.1,1.3-0.5,1.7C0,22.1,0,11.6,0,1
		c0-0.9,0.2-1,1-1C11.6,0,22.1,0,32.7,0z"/>
	<path class="st3" d="M39,0c-1.5,0.4-3.1,0.5-4.6,0C35.9,0,37.5,0,39,0z"/>
	<path class="st3" d="M0,34.4c0.5,1.5,0.4,3.1,0,4.6C0,37.5,0,35.9,0,34.4z"/>
	<path class="st4" d="M56.9,56.6c-0.3,0.7-0.8,1.2-1.3,1.7c-2.8-0.1-5.7-0.1-8.5-0.1c-0.6-0.4-1-0.9-1.2-1.5c0-10.4,0-20.8,0-31.2
		c0.3-0.7,0.8-1.1,1.5-1.4c2.6,0,5.2,0,7.8,0c0.8,0.2,1.3,0.7,1.7,1.5C56.9,35.9,56.9,46.2,56.9,56.6z"/>
	<path class="st5" d="M41.4,56.6c0,0.9-0.7,1.1-1.2,1.5c-2.8,0.1-5.7,0.1-8.5,0.2c-1.1-0.8-1.3-1.8-1.3-3.1c0-6.7,0-13.3,0-20
		c0-0.2,0-0.4,0-0.6c0.1-0.7,0.6-1.1,1.2-1.5c2.9-0.2,5.8-0.2,8.7,0c0.5,0.4,1,0.8,1.2,1.4C41.4,41.9,41.4,49.3,41.4,56.6z"/>
	<path class="st6" d="M41.3,29.6c-1.1,0.8-1.8,0.5-2.7-0.5c-1.4-1.5-2.9-2.9-4.4-4.3c-0.4-0.8-0.9-0.8-1.3,0
		c-2.9,2.8-5.7,5.7-8.6,8.5c-0.7,0.7-1.4,1.2-2.4,0.9c-1.7-0.6-2.2-2.4-0.9-3.8c2.5-2.6,5.1-5.1,7.6-7.6c0.5-0.5,1-1,1.5-1.6
		c0.3-0.2,0.3-0.3,0-0.5c-1.7-1.7-3.3-3.4-5-5.1c-0.5-0.5-0.9-1-0.6-1.7c0.3-0.8,0.9-0.5,1.5-0.5c4.6,0,9.1,0,13.7,0
		c0.6,0,1.1,0.2,1.5,0.6c0,0.6,0.1,1.2,0.1,1.9C41.3,20.4,41.3,25,41.3,29.6z"/>
	<path class="st5" d="M26.3,43.7c0,4.3,0,8.7,0,13c0,0.1-0.1,0.3-0.1,0.4c-0.4,0.4-0.8,0.9-1.2,1.3c-2.8-0.1-5.7-0.1-8.5-0.2
		c-0.5-0.3-0.9-0.7-1.2-1.3c0-4.4,0-8.8,0-13.3c0.3-0.8,0.8-1.3,1.6-1.6c2.7,0,5.4,0,8.1,0c0.5,0.4,0.9,0.7,1.4,1.1
		C26.2,43.4,26.3,43.5,26.3,43.7z"/>
	<path class="st7" d="M45.9,25.4c0,10.4,0,20.8,0,31.2c-0.6-0.3-0.5-0.9-0.5-1.4c0-9.5,0-19,0-28.4C45.4,26.3,45.3,25.7,45.9,25.4z"
		/>
	<path class="st8" d="M56.9,56.6c0-10.4,0-20.8,0-31.2c0.7,0.3,0.6,0.9,0.6,1.5c0,9.4,0,18.8,0,28.2C57.5,55.7,57.6,56.3,56.9,56.6z
		"/>
	<path class="st7" d="M41.4,56.6c0-7.4,0-14.7,0-22.1c0.6,0.5,0.5,1.1,0.5,1.7c0,6.3,0,12.6,0,18.8C41.9,55.7,42.1,56.3,41.4,56.6z"
		/>
	<path class="st9" d="M15.2,43.7c0,4.4,0,8.8,0,13.3c-0.5-0.3-0.5-0.8-0.5-1.2c0-3.6,0-7.2,0-10.8C14.8,44.4,14.7,43.9,15.2,43.7z"
		/>
	<path class="st9" d="M24.9,42.1c-2.7,0-5.4,0-8.1,0c0.2-0.1,0.4-0.4,0.6-0.4c2.3,0,4.7,0,7,0C24.5,41.7,24.7,42,24.9,42.1z"/>
	<path class="st9" d="M41.3,29.6c0-4.6,0-9.3-0.1-13.9c0-0.6-0.1-1.2-0.1-1.9c0.4,0.3,0.5,0.8,0.5,1.3c0,4.4,0,8.7,0,13.1
		C41.6,28.7,41.5,29.2,41.3,29.6z"/>
	<path class="st8" d="M55.2,24c-2.6,0-5.2,0-7.8,0c0.2-0.4,0.5-0.6,0.9-0.6c2,0,4,0,6,0C54.7,23.4,55,23.6,55.2,24z"/>
	<path class="st9" d="M40.2,33.1c-2.9-0.1-5.8-0.2-8.7,0C34.4,32.3,37.3,32.4,40.2,33.1z"/>
	<path class="st9" d="M16.5,58.2c2.8,0.1,5.7,0.1,8.5,0.2c-2.7,0.6-5.4,0.3-8.1,0.2C16.8,58.5,16.6,58.3,16.5,58.2z"/>
	<path class="st9" d="M31.6,58.3c2.8-0.1,5.7-0.1,8.5-0.2c-0.1,0.1-0.3,0.4-0.4,0.4C37,58.6,34.3,59,31.6,58.3z"/>
	<path class="st9" d="M47.1,58.2c2.8,0,5.7,0.1,8.5,0.1c-2.3,0.8-4.8,0.2-7.1,0.3C48,58.7,47.5,58.7,47.1,58.2z"/>
	<path class="st10" d="M32.9,24.8c0.4-0.8,0.9-0.8,1.3,0C33.8,24.8,33.3,24.8,32.9,24.8z"/>
	<path class="st11" d="M30.3,34.7c0,0.2,0,0.4,0,0.6C30.2,35.2,30,35.1,30,35C30,34.8,30.2,34.7,30.3,34.7z"/>
	<path class="st12" d="M30.1,20.7c0.3,0.2,0.3,0.3,0,0.5C30.1,21.1,30.1,20.9,30.1,20.7z"/>
	<path class="st12" d="M26.3,43.7c0-0.2,0-0.3-0.1-0.5C26.2,43.4,26.3,43.5,26.3,43.7z"/>
	<path class="st12" d="M26.2,57.1c0-0.1,0.1-0.3,0.1-0.4C26.2,56.8,26.2,56.9,26.2,57.1z"/>
</g>
</svg>
