<svg class="svgicon" id="svg48" preserveAspectRatio="xMidYMid meet" xmlns="http://www.w3.org/2000/svg" viewBox="0 0 128 128"><rect x="0" y="0" width="128" height="128" style="fill: rgb(111, 192, 114)" rx="64" ry="64"></rect><g transform="scale(0.76) translate(20.210526315789476, 20.210526315789476)"><style> #svg48 path, #svg48 circle, #svg48 polygon, #svg48 rect { fill: rgb(255, 255, 255) } #svg48 defs &gt; path { fill: none }  #svg48 path[fill="none"], #svg48 circle[fill="none"], #svg48 polygon[fill="none"], #svg48 rect[fill="none"] { fill: none } </style><path d="M98.22,47.937c-10.518,0-19.045,6.489-19.045,14.487c0,2.662,0.959,5.146,2.603,7.287l-2.542,8.537l10.604-2.826 c2.532,0.946,5.368,1.492,8.381,1.492c10.518,0,19.043-6.486,19.043-14.49C117.263,54.426,108.737,47.937,98.22,47.937z M90.643,64.06c-1.277,0-2.316-1.037-2.316-2.316s1.039-2.316,2.316-2.316c1.282,0,2.318,1.037,2.318,2.316 S91.925,64.06,90.643,64.06z M97.748,64.06c-1.281,0-2.317-1.037-2.317-2.316s1.036-2.316,2.317-2.316 c1.279,0,2.315,1.037,2.315,2.316S99.027,64.06,97.748,64.06z M105.006,64.06c-1.278,0-2.316-1.037-2.316-2.316 s1.038-2.316,2.316-2.316c1.279,0,2.315,1.037,2.315,2.316S106.285,64.06,105.006,64.06z"></path><path d="M64.312,42.731l1.639,11.016l7.659-8.708c10.518,0,19.043-6.486,19.043-14.49c0-7.998-8.525-14.487-19.043-14.487 s-19.045,6.489-19.045,14.487c0,2.662,1.188,5.716,2.603,7.287C60.094,41.091,64.312,42.731,64.312,42.731z M80.396,27.552 c1.279,0,2.315,1.037,2.315,2.316s-1.036,2.316-2.315,2.316c-1.278,0-2.316-1.037-2.316-2.316S79.118,27.552,80.396,27.552z M73.139,27.552c1.279,0,2.315,1.037,2.315,2.316s-1.036,2.316-2.315,2.316c-1.281,0-2.317-1.037-2.317-2.316 S71.857,27.552,73.139,27.552z M66.033,27.552c1.282,0,2.318,1.037,2.318,2.316s-1.036,2.316-2.318,2.316 c-1.277,0-2.316-1.037-2.316-2.316S64.756,27.552,66.033,27.552z"></path><path d="M48.765,66.529l-2.539-8.537c1.641-2.142,2.6-4.625,2.6-7.287c0-7.998-8.527-14.487-19.045-14.487 s-19.043,6.489-19.043,14.487c0,8.004,8.525,14.49,19.043,14.49c3.014,0,5.849-0.546,8.381-1.492L48.765,66.529z M22.994,52.341 c-1.279,0-2.315-1.037-2.315-2.316s1.036-2.316,2.315-2.316c1.278,0,2.316,1.037,2.316,2.316S24.272,52.341,22.994,52.341z M30.252,52.341c-1.279,0-2.315-1.037-2.315-2.316s1.036-2.316,2.315-2.316c1.281,0,2.318,1.037,2.318,2.316 S31.533,52.341,30.252,52.341z M35.041,50.024c0-1.279,1.034-2.316,2.316-2.316c1.277,0,2.316,1.037,2.316,2.316 s-1.039,2.316-2.316,2.316C36.075,52.341,35.041,51.304,35.041,50.024z"></path><path d="M69.897,98.032c0-3.578-0.359-5.722-0.359-5.722s4.648-6.438,5.007-15.378c0-1.421,0.696-11.506-11.443-11.961 c0-0.004,0-0.013,0-0.017c-0.029,0.002-0.057,0.008-0.089,0.008c-0.029,0-0.058-0.006-0.091-0.008c0,0.004,0,0.013,0,0.017 C50.786,65.426,51.48,75.511,51.48,76.932c0.356,8.94,5.006,15.378,5.006,15.378s-0.358,2.144-0.358,5.722 c-19.307,4.647-21.991,11.085-21.991,11.085v2.821h57.752v-2.821C91.889,109.117,89.207,102.679,69.897,98.032z"></path></g></svg>