<?xml version="1.0" encoding="utf-8"?>
<!-- Generator: Adobe Illustrator 21.0.2, SVG Export Plug-In . SVG Version: 6.00 Build 0)  -->
<svg version="1.1" id="Layer_1" xmlns="http://www.w3.org/2000/svg" xmlns:xlink="http://www.w3.org/1999/xlink" x="0px" y="0px"
	 viewBox="0 0 74 74" style="enable-background:new 0 0 74 74;" xml:space="preserve">
<style type="text/css">
	.st0{fill:#334D5C;}
	.st1{fill:#f5f5f5;}
	.st2{fill:#DEE9DB;}
	.st3{fill:#E96307;}
	.st4{fill:#E0782D;}
	.st5{fill:#DBBB02;}
	.st6{fill:#DABB02;}
	.st7{fill:#DCBC02;}
	.st8{fill:#CD550A;}
	.st9{fill:#D8B505;}
	.st10{fill:#E1FEFD;}
	.st11{fill:#F4E227;}
	.st12{fill:#FDDB29;}
	.st13{fill:#FEFEFB;}
	.st14{fill:#FEE26E;}
</style>
<g>
	<path class="st0" d="M33.2,0.3c2.7,0,5.4,0,8.1,0c1,0.2,2.1,0.2,3.1,0.3c4.4,0.3,8.3,2,12,4.3c8.3,5,14,12.2,16.9,21.5
		c0.8,2.7,0.9,5.4,1,8.1c0.2,3.4,0.1,6.8-0.3,10.2c-0.5,4.2-2.2,8.1-4.4,11.7c-5.1,8.3-12.2,14-21.5,16.9c-2.7,0.9-5.5,0.9-8.3,1.1
		c-3.7,0.2-7.4,0.1-11.1-0.5c-3.9-0.6-7.5-2.2-10.8-4.3C9.9,64.6,4.2,57.5,1.3,48.3c-0.7-2.2-0.5-4.5-1-6.7c0-2.9,0-5.8,0-8.7
		c0.5-2.9,0.5-5.8,1.6-8.6C6.6,12.5,15,4.7,27.1,1C29.1,0.4,31.2,0.7,33.2,0.3z"/>
	<path class="st1" d="M0.3,41.6c0.7,1,0.6,2.3,0.8,3.4C4.4,60.2,17,72,32.2,74c15.7,2.1,30.9-5.8,38-19.7
		c11.7-22.7-2.5-50-27.8-53.7c-0.3-0.1-0.8,0.1-1-0.3c10.7,0,21.5,0,32.2,0c0.9,0,1,0.2,1,1c0,24.1,0,48.2,0,72.3c0,0.9-0.2,1-1,1
		c-24.1,0-48.2,0-72.3,0c-0.9,0-1-0.2-1-1C0.3,62.9,0.3,52.3,0.3,41.6z"/>
	<path class="st1" d="M33.2,0.3c-1.1,0.6-2.3,0.5-3.4,0.8C14.5,4.4,3.5,16,0.8,31.4c-0.1,0.5,0.1,1.2-0.5,1.6c0-10.6,0-21.1,0-31.7
		c0-0.9,0.2-1,1-1C11.9,0.3,22.6,0.3,33.2,0.3z"/>
	<path class="st2" d="M47.1,48.8c0,2.5-1.6,3.3-3.7,3.9c-4.9,1.3-9.6,0.9-14.3-0.8c-1.6-0.6-1.2-2-1.6-3.1c-0.9-0.7-0.9-1.7-0.9-2.6
		c-0.1-2.3,0-4.6,0-6.9c0-1,0.4-2,0.9-2.8c0.7-5.5,1.7-11,3.5-16.3c0.2-0.6,0.5-1.3,0.7-1.9c1.6-0.4,3.1-0.2,4.5,0.5
		c-0.3,0.3-0.3,0.3-0.7,0.4c1.4-0.4,2.7-0.3,3.7,0c0.5,0,0.4-0.3,0.4-0.1c0,0.1,0,0.1-0.1,0.1c-0.3-0.1-0.7,0.2-0.8-0.4
		c1.4-0.8,2.8-0.8,4.3-0.5c2.2,5.7,3.4,11.6,4.1,17.6c0,0.2,0.1,0.5,0.1,0.7c0.7,1.1,0.9,2.3,0.9,3.6c0,1.9,0,3.8,0,5.8
		C48,47.1,48,48.1,47.1,48.8z"/>
	<path class="st3" d="M27.4,36.5c-0.3,4.1-0.4,8.3,0,12.4c-2.2,0.6-4.4,1.2-6.5,1.8c-0.7,0.2-1.4,0.3-2.1,0.3
		c-1.7,0-2.5-1.2-2.2-2.8c0.5-2.1,1.6-3.8,3-5.4C21.8,40.2,24.4,38,27.4,36.5z"/>
	<path class="st3" d="M47.1,48.8c0.4-4,0.3-8.1,0-12.1c4,2.2,7.2,5.1,9.5,9c0.4,0.7,0.8,1.4,1,2.2c0.7,2.1-0.3,3.3-2.4,2.8
		c-2.4-0.5-4.8-1.2-7.3-1.8C47.7,48.9,47.4,48.9,47.1,48.8z"/>
	<path class="st3" d="M32,17.3c0.9-2.7,1.9-5.3,3.7-7.6c1.2-1.6,2-1.6,3.2,0c1.7,2.3,2.8,4.9,3.7,7.6c-0.2,1.1-1,1-1.8,1.1
		c-2.2,0.3-4.5,0.3-6.7,0C33.3,18.2,32.3,18.5,32,17.3z"/>
	<path class="st4" d="M37.4,68.5c-1.8-3.7-3.6-7.3-4.7-11.1c-0.3-1.2,0.1-1.9,1.3-2c2.3-0.3,4.6-0.3,6.9,0c1.3,0.2,1.6,0.9,1.3,2.2
		C41,61.3,39.3,64.9,37.4,68.5z"/>
	<path class="st5" d="M14,34.2c0.9-1.9,0.4-3.2-1.4-4.3c2.1,0.2,3.1-0.5,3.6-2.5c0.5,2,1.7,2.5,3.4,2.6c-1.6,0.9-2.1,2.1-1.4,3.8
		C16.8,32.6,15.6,32.7,14,34.2z"/>
	<path class="st6" d="M58.8,37.6c0.7-1.7,0.1-2.8-1.3-3.8c0.8-0.3,1.7-0.6,2-0.6c1.3,0,0.5-1.4,1.4-1.5c0.4,1.4,1.2,2.4,3.1,2.1
		c-1.6,1-2,2.2-1.2,3.9C61.4,36.4,60.2,36.4,58.8,37.6z"/>
	<path class="st7" d="M48,14.6c0.7-1.6,0.3-2.8-1.4-3.8c1.8-0.1,2.9-0.7,3.4-2.7c0.6,1.8,1.3,2.9,3.1,2.7c-1.4,0.9-1.9,2.1-1.1,3.7
		C50.6,13.3,49.3,13.3,48,14.6z"/>
	<path class="st8" d="M32,17.3c3.5,1.1,7,1.2,10.5,0c0.1,0.4,0.3,0.7,0.4,1.1c-1.4,0.2-2.9,0.4-4.3,0.6c-0.8,0.3-1.6,0.3-2.5,0
		c-1.5-0.2-3.1-0.4-4.6-0.7C31.8,18,31.9,17.6,32,17.3z"/>
	<path class="st9" d="M41.9,27.7c0,2.5-2.1,4.6-4.6,4.6c-2.4,0-4.5-2-4.5-4.5c0-2.5,2-4.6,4.5-4.7C39.7,23.1,41.8,25.2,41.9,27.7z"
		/>
	<path class="st10" d="M36.2,19c0.8,0,1.6,0,2.5,0c0.4,0,0.8,0.1,1.3,0.1c0,0,0,0.1,0,0.1c-1.7,0-3.3,0-5,0c0,0,0-0.1,0-0.1
		C35.3,19.1,35.8,19.1,36.2,19z"/>
	<path class="st11" d="M37.4,65c-1.3-2.6-2.5-5.1-3.3-7.6c-0.3-1.1,0.1-1.6,1.2-1.6c1.4,0,2.8,0,4.2,0c1.3,0,1.6,0.4,1.2,1.8
		C39.9,60.1,38.8,62.4,37.4,65z"/>
	<path class="st12" d="M36.1,24.2c2.2-0.6,3.8,0.1,4.7,1.9c0.7,1.6,0.1,3.7-1.4,4.7c-1.7,1.1-3.7,0.8-5.1-0.8
		c-1-1.1-1.1-2.8-0.3-4.1c0.1,0,0.1,0.1,0.2,0.1c0.5,0.5,0.2,1.2,0.3,1.8c0.3,1.4,1.3,1.8,2.4,0.9c0.5-0.4,1-0.9,1.4-1.4
		c1-1.2,0.7-2-0.8-2.4c-0.4-0.1-0.9-0.1-1.2-0.4C36.2,24.5,36.1,24.4,36.1,24.2z"/>
	<path class="st12" d="M34.1,26c0.4-0.9,1-1.6,2-1.7c0,0,0.1,0.1,0.1,0.1c-0.2,1.2-0.8,1.8-2,1.7L34.1,26z"/>
	<path class="st13" d="M37.4,61.7c-0.8-1.4-1.4-2.8-1.9-4.2c-0.2-0.7-0.2-1.1,0.7-1.1c0.8,0,1.6,0,2.4,0c0.9,0,0.9,0.4,0.7,1.1
		C38.8,58.9,38.2,60.3,37.4,61.7z"/>
	<path class="st14" d="M34.2,26.1c0.7-0.6,1.3-1.1,2-1.7c1.3-0.1,2.7-0.2,3.3,1.1c0.6,1.3-0.5,2.2-1.4,3.1c-0.9,0.8-1.7,2-3.2,1.3
		C33.9,29.3,33.6,27.9,34.2,26.1z"/>
</g>
</svg>
