<svg class="svgicon" id="svg50" preserveAspectRatio="xMidYMid meet" xmlns="http://www.w3.org/2000/svg" viewBox="0 0 128 128"><rect x="0" y="0" width="128" height="128" style="fill: rgb(111, 192, 114)" rx="64" ry="64"></rect><g transform="scale(0.67) translate(31.522388059701488, 31.522388059701488)"><style> #svg50 path, #svg50 circle, #svg50 polygon, #svg50 rect { fill: rgb(255, 255, 255) } #svg50 defs &gt; path { fill: none }  #svg50 path[fill="none"], #svg50 circle[fill="none"], #svg50 polygon[fill="none"], #svg50 rect[fill="none"] { fill: none } </style><style type="text/css"> #svg50 .st0{fill-rule:evenodd;clip-rule:evenodd;} </style><path d="M106.926,21.075c-15.424-15.425-40.424-15.425-55.85,0C37.98,34.168,36.01,54.166,45.148,69.344l-2.934,2.932 c0,0,0.02,0.042,0.059,0.121l-32.082,32.085c-1.129,1.129-0.812,3.418,0.588,5.901c-1.137,1.922-0.895,4.431,0.758,6.083 c1.648,1.649,4.158,1.891,6.082,0.756c2.482,1.398,4.771,1.716,5.902,0.588l35.027-35.028c15.193,9.217,35.252,7.271,48.377-5.854 C122.35,61.504,122.35,36.497,106.926,21.075z M58.115,69.887c-11.537-11.533-11.537-30.24,0-41.771 c11.537-11.537,30.24-11.537,41.771-0.003c11.539,11.537,11.535,30.241,0,41.774C88.355,81.421,69.652,81.424,58.115,69.887z"></path><path d="M82.76,29.285c-16.783,1.726-23.141,15.525-23.305,15.852c-0.738,1.611-0.037,3.53,1.574,4.271 c1.617,0.753,3.535,0.036,4.275-1.568c0,0,0.033-0.074,0.189-0.357c1.115-2.046,6.5-10.728,17.887-11.786 c1.379-0.135,2.469-1.116,2.805-2.384c0.092-0.357,0.129-0.737,0.092-1.133C86.1,30.41,84.531,29.107,82.76,29.285z"></path></g></svg>